<svg xmlns="http://www.w3.org/2000/svg" xmlns:xlink="http://www.w3.org/1999/xlink" width="70" zoomAndPan="magnify" viewBox="0 0 52.5 52.499999" height="70" preserveAspectRatio="xMidYMid meet" version="1.0"><defs><clipPath id="86e14ead2e"><path d="M 0 0 L 52.003906 0 L 52.003906 52.003906 L 0 52.003906 Z M 0 0 " clip-rule="nonzero"/></clipPath><clipPath id="b8f629f991"><path d="M 0 13 L 20 13 L 20 33 L 0 33 Z M 0 13 " clip-rule="nonzero"/></clipPath><clipPath id="f7615437af"><path d="M -3.675781 15.988281 L 15.136719 10.757812 L 19.714844 27.214844 L 0.902344 32.449219 Z M -3.675781 15.988281 " clip-rule="nonzero"/></clipPath><clipPath id="3874b83ddc"><path d="M 5.730469 13.371094 L 19.714844 27.214844 L 0.902344 32.449219 Z M 5.730469 13.371094 " clip-rule="nonzero"/></clipPath><clipPath id="d909f193a4"><path d="M 3.121094 31.605469 L 17.421875 31.605469 L 17.421875 52.003906 L 3.121094 52.003906 Z M 3.121094 31.605469 " clip-rule="nonzero"/></clipPath><clipPath id="b7520fef53"><path d="M 7.890625 32.015625 C 8.621094 31.765625 9.457031 31.605469 10.273438 31.605469 C 11.09375 31.605469 11.878906 31.742188 12.605469 31.992188 C 12.621094 32 12.636719 32 12.652344 32.007812 C 15.375 33.007812 17.382812 35.640625 17.421875 38.789062 L 17.421875 52.5 L 3.121094 52.5 L 3.121094 38.800781 C 3.160156 35.625 5.136719 32.992188 7.890625 32.015625 Z M 7.890625 32.015625 " clip-rule="nonzero"/></clipPath><clipPath id="57978363f4"><path d="M 31 11 L 52 11 L 52 32 L 31 32 Z M 31 11 " clip-rule="nonzero"/></clipPath><clipPath id="e094ebd733"><path d="M 33.125 10.144531 L 52.921875 13.265625 L 49.800781 33.0625 L 30.003906 29.941406 Z M 33.125 10.144531 " clip-rule="nonzero"/></clipPath><clipPath id="23331e0be5"><path d="M 43.023438 11.703125 L 51.363281 23.164062 L 39.902344 31.503906 L 31.5625 20.042969 Z M 43.023438 11.703125 " clip-rule="nonzero"/></clipPath><clipPath id="4a57cd485d"><path d="M 17.15625 26.71875 L 34.761719 26.71875 L 34.761719 52.003906 L 17.15625 52.003906 Z M 17.15625 26.71875 " clip-rule="nonzero"/></clipPath><clipPath id="1decf442cc"><path d="M 23.027344 27.226562 C 23.929688 26.917969 24.957031 26.71875 25.964844 26.71875 C 26.972656 26.71875 27.941406 26.890625 28.832031 27.199219 C 28.851562 27.207031 28.871094 27.207031 28.890625 27.21875 C 32.246094 28.445312 34.714844 31.6875 34.761719 35.566406 L 34.761719 52.5 L 17.15625 52.5 L 17.15625 35.578125 C 17.203125 31.667969 19.636719 28.425781 23.027344 27.226562 Z M 23.027344 27.226562 " clip-rule="nonzero"/></clipPath><clipPath id="4ef9376d58"><path d="M 15 3 L 36 3 L 36 26 L 15 26 Z M 15 3 " clip-rule="nonzero"/></clipPath><clipPath id="abc70c7caa"><path d="M 13.894531 5.433594 L 34.714844 2.121094 L 38.023438 22.9375 L 17.207031 26.25 Z M 13.894531 5.433594 " clip-rule="nonzero"/></clipPath><clipPath id="ac491d89e3"><path d="M 24.304688 3.777344 L 35.976562 10.074219 L 34.046875 23.570312 L 21.183594 25.617188 L 15.160156 13.382812 Z M 24.304688 3.777344 " clip-rule="nonzero"/></clipPath><clipPath id="2f968ab177"><path d="M 34.46875 32.449219 L 48.460938 32.449219 L 48.460938 52.003906 L 34.46875 52.003906 Z M 34.46875 32.449219 " clip-rule="nonzero"/></clipPath><clipPath id="3ef99dff34"><path d="M 39.132812 32.851562 C 39.847656 32.609375 40.667969 32.449219 41.46875 32.449219 C 42.269531 32.449219 43.039062 32.585938 43.746094 32.832031 C 43.761719 32.835938 43.777344 32.835938 43.792969 32.84375 C 46.457031 33.820312 48.421875 36.398438 48.460938 39.472656 L 48.460938 52.5 L 34.46875 52.5 L 34.46875 39.480469 C 34.503906 36.382812 36.4375 33.804688 39.132812 32.851562 Z M 39.132812 32.851562 " clip-rule="nonzero"/></clipPath></defs><g clip-path="url(#86e14ead2e)"><path fill="#ffffff" d="M 0 0 L 52.5 0 L 52.5 52.5 L 0 52.5 Z M 0 0 " fill-opacity="1" fill-rule="nonzero"/><path fill="#ffffff" d="M 0 0 L 52.5 0 L 52.5 52.5 L 0 52.5 Z M 0 0 " fill-opacity="1" fill-rule="nonzero"/></g><g clip-path="url(#b8f629f991)"><g clip-path="url(#f7615437af)"><g clip-path="url(#3874b83ddc)"><path fill="#ff3131" d="M -3.675781 15.988281 L 15.136719 10.757812 L 19.714844 27.214844 L 0.902344 32.449219 Z M -3.675781 15.988281 " fill-opacity="1" fill-rule="nonzero"/></g></g></g><g clip-path="url(#d909f193a4)"><g clip-path="url(#b7520fef53)"><path fill="#ff3131" d="M 3.121094 31.605469 L 17.421875 31.605469 L 17.421875 52.5 L 3.121094 52.5 Z M 3.121094 31.605469 " fill-opacity="1" fill-rule="nonzero"/></g></g><g clip-path="url(#57978363f4)"><g clip-path="url(#e094ebd733)"><g clip-path="url(#23331e0be5)"><path fill="#cb6ce6" d="M 33.125 10.144531 L 52.921875 13.265625 L 49.800781 33.0625 L 30.003906 29.941406 Z M 33.125 10.144531 " fill-opacity="1" fill-rule="nonzero"/></g></g></g><g clip-path="url(#4a57cd485d)"><g clip-path="url(#1decf442cc)"><path fill="#00bf63" d="M 17.15625 26.71875 L 34.761719 26.71875 L 34.761719 52.5 L 17.15625 52.5 Z M 17.15625 26.71875 " fill-opacity="1" fill-rule="nonzero"/></g></g><g clip-path="url(#4ef9376d58)"><g clip-path="url(#abc70c7caa)"><g clip-path="url(#ac491d89e3)"><path fill="#00bf63" d="M 13.894531 5.433594 L 34.714844 2.121094 L 38.023438 22.9375 L 17.207031 26.25 Z M 13.894531 5.433594 " fill-opacity="1" fill-rule="nonzero"/></g></g></g><g clip-path="url(#2f968ab177)"><g clip-path="url(#3ef99dff34)"><path fill="#cb6ce6" d="M 34.46875 32.449219 L 48.460938 32.449219 L 48.460938 52.5 L 34.46875 52.5 Z M 34.46875 32.449219 " fill-opacity="1" fill-rule="nonzero"/></g></g></svg>