<svg xmlns="http://www.w3.org/2000/svg" xmlns:xlink="http://www.w3.org/1999/xlink" width="70" zoomAndPan="magnify" viewBox="0 0 52.5 52.499999" height="70" preserveAspectRatio="xMidYMid meet" version="1.0"><defs><clipPath id="01c0a33ab3"><path d="M 0 0 L 52.003906 0 L 52.003906 52.003906 L 0 52.003906 Z M 0 0 " clip-rule="nonzero"/></clipPath><clipPath id="69514fe772"><path d="M 11.300781 29.421875 L 41.199219 29.421875 L 41.199219 51.828125 L 11.300781 51.828125 Z M 11.300781 29.421875 " clip-rule="nonzero"/></clipPath><clipPath id="1336f8fc99"><path d="M 21.273438 51.28125 C 22.804688 51.613281 24.546875 51.828125 26.257812 51.828125 C 27.96875 51.828125 29.613281 51.644531 31.128906 51.3125 C 31.164062 51.300781 31.195312 51.300781 31.226562 51.292969 C 36.921875 49.96875 41.117188 46.476562 41.199219 42.417969 L 41.199219 29.421875 L 11.300781 29.421875 L 11.300781 42.410156 C 11.382812 46.5 15.511719 49.992188 21.273438 51.28125 Z M 21.273438 51.28125 " clip-rule="nonzero"/></clipPath><clipPath id="1a992afdae"><path d="M 11.300781 20.339844 L 41.199219 20.339844 L 41.199219 38.5 L 11.300781 38.5 Z M 11.300781 20.339844 " clip-rule="nonzero"/></clipPath><clipPath id="5bdb994e8f"><path d="M 21.273438 20.886719 C 22.800781 20.554688 24.546875 20.339844 26.257812 20.339844 C 27.96875 20.339844 29.613281 20.523438 31.128906 20.855469 C 31.164062 20.863281 31.195312 20.863281 31.226562 20.875 C 36.921875 22.199219 41.117188 25.6875 41.199219 29.652344 L 41.199219 38.5 L 11.300781 38.5 L 11.300781 29.660156 C 11.382812 25.667969 15.511719 22.175781 21.273438 20.886719 Z M 21.273438 20.886719 " clip-rule="nonzero"/></clipPath><clipPath id="0fe8f7b175"><path d="M 17.210938 0.671875 L 35.289062 0.671875 L 35.289062 18.746094 L 17.210938 18.746094 Z M 17.210938 0.671875 " clip-rule="nonzero"/></clipPath><clipPath id="5583fedfbf"><path d="M 26.25 0.671875 C 21.257812 0.671875 17.210938 4.71875 17.210938 9.710938 C 17.210938 14.699219 21.257812 18.746094 26.25 18.746094 C 31.242188 18.746094 35.289062 14.699219 35.289062 9.710938 C 35.289062 4.71875 31.242188 0.671875 26.25 0.671875 Z M 26.25 0.671875 " clip-rule="nonzero"/></clipPath></defs><g clip-path="url(#01c0a33ab3)"><path fill="#ffffff" d="M 0 0 L 52.5 0 L 52.5 52.5 L 0 52.5 Z M 0 0 " fill-opacity="1" fill-rule="nonzero"/><path fill="#ffffff" d="M 0 0 L 52.5 0 L 52.5 52.5 L 0 52.5 Z M 0 0 " fill-opacity="1" fill-rule="nonzero"/></g><g clip-path="url(#69514fe772)"><g clip-path="url(#1336f8fc99)"><path fill="#d5a10f" d="M 11.300781 29.421875 L 41.199219 29.421875 L 41.199219 51.828125 L 11.300781 51.828125 Z M 11.300781 29.421875 " fill-opacity="1" fill-rule="nonzero"/></g></g><g clip-path="url(#1a992afdae)"><g clip-path="url(#5bdb994e8f)"><path fill="#d5a10f" d="M 11.300781 20.339844 L 41.199219 20.339844 L 41.199219 38.5 L 11.300781 38.5 Z M 11.300781 20.339844 " fill-opacity="1" fill-rule="nonzero"/></g></g><g clip-path="url(#0fe8f7b175)"><g clip-path="url(#5583fedfbf)"><path fill="#004b91" d="M 17.210938 0.671875 L 35.289062 0.671875 L 35.289062 18.746094 L 17.210938 18.746094 Z M 17.210938 0.671875 " fill-opacity="1" fill-rule="nonzero"/></g></g></svg>