<svg xmlns="http://www.w3.org/2000/svg" xmlns:xlink="http://www.w3.org/1999/xlink" width="1920" zoomAndPan="magnify" viewBox="0 0 1440 809.999993" height="1080" preserveAspectRatio="xMidYMid meet" version="1.0"><defs><clipPath id="6a58fba706"><path d="M 627.855469 312.320312 L 812.570312 312.320312 L 812.570312 497.035156 L 627.855469 497.035156 Z M 627.855469 312.320312 " clip-rule="nonzero"/></clipPath><clipPath id="608f150271"><path d="M 720.214844 312.320312 C 669.207031 312.320312 627.855469 353.671875 627.855469 404.679688 C 627.855469 455.6875 669.207031 497.035156 720.214844 497.035156 C 771.222656 497.035156 812.570312 455.6875 812.570312 404.679688 C 812.570312 353.671875 771.222656 312.320312 720.214844 312.320312 " clip-rule="nonzero"/></clipPath><clipPath id="fd551d395f"><path d="M 661.5 356.679688 L 709.5 356.679688 L 709.5 404.679688 L 661.5 404.679688 Z M 661.5 356.679688 " clip-rule="nonzero"/></clipPath><clipPath id="83756e4156"><path d="M 685.5 356.679688 L 709.5 375.011719 L 700.332031 404.679688 L 670.667969 404.679688 L 661.5 375.011719 L 685.5 356.679688 " clip-rule="nonzero"/></clipPath><clipPath id="f9bd5c696a"><path d="M 664.5 407.25 L 706.5 407.25 L 706.5 458.941406 L 664.5 458.941406 Z M 664.5 407.25 " clip-rule="nonzero"/></clipPath><clipPath id="f56e5411dd"><path d="M 678.507812 408.460938 C 680.652344 407.730469 683.109375 407.25 685.511719 407.25 C 687.914062 407.25 690.226562 407.660156 692.355469 408.394531 C 692.402344 408.417969 692.445312 408.417969 692.492188 408.441406 C 700.492188 411.367188 706.386719 419.101562 706.5 428.140625 L 706.5 458.941406 L 664.5 458.941406 L 664.5 428.164062 C 664.613281 419.058594 670.414062 411.324219 678.507812 408.460938 " clip-rule="nonzero"/></clipPath><clipPath id="b2e6c6e28c"><path d="M 727.5 356.679688 L 782.355469 356.679688 L 782.355469 404.679688 L 727.5 404.679688 Z M 727.5 356.679688 " clip-rule="nonzero"/></clipPath><clipPath id="bfdb4873c9"><path d="M 754.929688 356.679688 L 782.355469 404.679688 L 727.5 404.679688 L 754.929688 356.679688 " clip-rule="nonzero"/></clipPath><clipPath id="6548c69131"><path d="M 733.929688 407.25 L 775.929688 407.25 L 775.929688 458.941406 L 733.929688 458.941406 Z M 733.929688 407.25 " clip-rule="nonzero"/></clipPath><clipPath id="cdc3e6a73f"><path d="M 747.9375 408.460938 C 750.082031 407.730469 752.539062 407.25 754.941406 407.25 C 757.34375 407.25 759.65625 407.660156 761.785156 408.394531 C 761.832031 408.417969 761.875 408.417969 761.921875 408.441406 C 769.921875 411.367188 775.816406 419.101562 775.929688 428.140625 L 775.929688 458.941406 L 733.929688 458.941406 L 733.929688 428.164062 C 734.042969 419.058594 739.84375 411.324219 747.9375 408.460938 " clip-rule="nonzero"/></clipPath><clipPath id="e5c6590255"><path d="M 685.5 335.25 L 754.929688 335.25 L 754.929688 404.679688 L 685.5 404.679688 Z M 685.5 335.25 " clip-rule="nonzero"/></clipPath><clipPath id="e685c16768"><path d="M 720.214844 335.25 L 754.929688 369.964844 L 720.214844 404.679688 L 685.5 369.964844 L 720.214844 335.25 " clip-rule="nonzero"/></clipPath><clipPath id="bd38e9a595"><path d="M 695.839844 407.25 L 744.589844 407.25 L 744.589844 467.25 L 695.839844 467.25 Z M 695.839844 407.25 " clip-rule="nonzero"/></clipPath><clipPath id="178b3715c2"><path d="M 712.097656 408.65625 C 714.589844 407.808594 717.4375 407.25 720.226562 407.25 C 723.015625 407.25 725.699219 407.726562 728.171875 408.578125 C 728.226562 408.605469 728.277344 408.605469 728.332031 408.632812 C 737.617188 412.03125 744.457031 421.007812 744.589844 431.5 L 744.589844 467.25 L 695.839844 467.25 L 695.839844 431.527344 C 695.972656 420.957031 702.707031 411.976562 712.097656 408.65625 " clip-rule="nonzero"/></clipPath></defs><rect x="-144" width="1728" fill="#ffffff" y="-80.999999" height="971.999992" fill-opacity="1"/><rect x="-144" width="1728" fill="#ffffff" y="-80.999999" height="971.999992" fill-opacity="1"/><g clip-path="url(#6a58fba706)"><g clip-path="url(#608f150271)"><path fill="#0f1a19" d="M 627.855469 312.320312 L 812.570312 312.320312 L 812.570312 497.035156 L 627.855469 497.035156 Z M 627.855469 312.320312 " fill-opacity="1" fill-rule="nonzero"/></g></g><g clip-path="url(#fd551d395f)"><g clip-path="url(#83756e4156)"><path fill="#0097b2" d="M 661.5 356.679688 L 709.5 356.679688 L 709.5 404.679688 L 661.5 404.679688 Z M 661.5 356.679688 " fill-opacity="1" fill-rule="nonzero"/></g></g><g clip-path="url(#f9bd5c696a)"><g clip-path="url(#f56e5411dd)"><path fill="#0097b2" d="M 664.5 407.25 L 706.5 407.25 L 706.5 458.941406 L 664.5 458.941406 Z M 664.5 407.25 " fill-opacity="1" fill-rule="nonzero"/></g></g><g clip-path="url(#b2e6c6e28c)"><g clip-path="url(#bfdb4873c9)"><path fill="#ffde59" d="M 727.5 356.679688 L 782.355469 356.679688 L 782.355469 404.679688 L 727.5 404.679688 Z M 727.5 356.679688 " fill-opacity="1" fill-rule="nonzero"/></g></g><g clip-path="url(#6548c69131)"><g clip-path="url(#cdc3e6a73f)"><path fill="#ffde59" d="M 733.929688 407.25 L 775.929688 407.25 L 775.929688 458.941406 L 733.929688 458.941406 Z M 733.929688 407.25 " fill-opacity="1" fill-rule="nonzero"/></g></g><g clip-path="url(#e5c6590255)"><g clip-path="url(#e685c16768)"><path fill="#cb6ce6" d="M 685.5 335.25 L 754.929688 335.25 L 754.929688 404.679688 L 685.5 404.679688 Z M 685.5 335.25 " fill-opacity="1" fill-rule="nonzero"/></g></g><g clip-path="url(#bd38e9a595)"><g clip-path="url(#178b3715c2)"><path fill="#cb6ce6" d="M 695.839844 407.25 L 744.589844 407.25 L 744.589844 467.25 L 695.839844 467.25 Z M 695.839844 407.25 " fill-opacity="1" fill-rule="nonzero"/></g></g></svg>