<?xml version="1.0" standalone="no"?>
<!DOCTYPE svg PUBLIC "-//W3C//DTD SVG 20010904//EN"
 "http://www.w3.org/TR/2001/REC-SVG-20010904/DTD/svg10.dtd">
<svg version="1.0" xmlns="http://www.w3.org/2000/svg"
 width="512.000000pt" height="512.000000pt" viewBox="0 0 512.000000 512.000000"
 preserveAspectRatio="xMidYMid meet">

<g transform="translate(0.000000,512.000000) scale(0.100000,-0.100000)"
fill="#ffffff" stroke="none">
<path d="M2440 3884 c-139 -30 -274 -122 -353 -241 -142 -213 -131 -484 27
-679 171 -212 464 -276 704 -155 249 126 373 409 295 674 -57 197 -234 359
-438 402 -86 18 -150 18 -235 -1z"/>
<path d="M2238 2625 c-258 -36 -558 -120 -662 -184 -46 -29 -130 -120 -154
-167 -63 -123 -68 -263 -13 -379 81 -174 300 -392 511 -508 226 -125 511 -184
759 -158 317 32 578 153 804 370 261 251 326 457 215 675 -26 52 -112 142
-163 171 -88 51 -342 127 -555 166 -150 27 -591 36 -742 14z"/>
</g>
</svg>
