<?xml version="1.0" encoding="UTF-8"?>
<!DOCTYPE svg PUBLIC "-//W3C//DTD SVG 1.1//EN" "http://www.w3.org/Graphics/SVG/1.1/DTD/svg11.dtd">
<svg xmlns="http://www.w3.org/2000/svg" version="1.1" width="1920px" height="1080px" style="shape-rendering:geometricPrecision; text-rendering:geometricPrecision; image-rendering:optimizeQuality; fill-rule:evenodd; clip-rule:evenodd" xmlns:xlink="http://www.w3.org/1999/xlink">
<g><path style="opacity:1" fill="#fffefe" d="M -0.5,-0.5 C 639.5,-0.5 1279.5,-0.5 1919.5,-0.5C 1919.5,359.5 1919.5,719.5 1919.5,1079.5C 1279.5,1079.5 639.5,1079.5 -0.5,1079.5C -0.5,719.5 -0.5,359.5 -0.5,-0.5 Z"/></g>
<g><path style="opacity:1" fill="#ff914d" d="M 664.5,347.5 C 860.5,347.333 1056.5,347.5 1252.5,348C 1266.41,350.581 1274.08,358.914 1275.5,373C 1275.12,388.46 1267.46,397.793 1252.5,401C 1056.5,401.667 860.5,401.667 664.5,401C 647.705,394.916 641.205,383.083 645,365.5C 648.906,356.64 655.406,350.64 664.5,347.5 Z"/></g>
<g><path style="opacity:1" fill="#fffdfc" d="M 1240.5,354.5 C 1260.85,353.338 1269.35,362.671 1266,382.5C 1260.48,392.672 1251.98,396.505 1240.5,394C 1229.25,388.657 1225.08,379.824 1228,367.5C 1230.35,361.315 1234.52,356.982 1240.5,354.5 Z"/></g>
<g><path style="opacity:1" fill="#fff9f5" d="M 679.5,363.5 C 681.167,363.5 682.833,363.5 684.5,363.5C 684.337,365.857 684.503,368.19 685,370.5C 688.339,367.701 691.339,368.034 694,371.5C 694.499,375.821 694.666,380.154 694.5,384.5C 692.833,384.5 691.167,384.5 689.5,384.5C 689.5,380.833 689.5,377.167 689.5,373.5C 688.167,373.5 686.833,373.5 685.5,373.5C 685.5,377.167 685.5,380.833 685.5,384.5C 683.5,384.5 681.5,384.5 679.5,384.5C 679.5,377.5 679.5,370.5 679.5,363.5 Z"/></g>
<g><path style="opacity:1" fill="#fff9f6" d="M 666.5,364.5 C 669.187,364.336 671.854,364.503 674.5,365C 676.836,366.27 676.836,367.77 674.5,369.5C 669.318,367.137 666.651,368.804 666.5,374.5C 666.651,380.196 669.318,381.863 674.5,379.5C 675.452,381.045 675.785,382.712 675.5,384.5C 665.078,386.24 660.245,381.907 661,371.5C 661.967,368.379 663.8,366.046 666.5,364.5 Z"/></g>
<g><path style="opacity:1" fill="#fffbf8" d="M 745.5,364.5 C 754.935,363.413 759.435,367.413 759,376.5C 756.837,382.908 752.337,385.408 745.5,384C 737.541,377.502 737.541,371.002 745.5,364.5 Z"/></g>
<g><path style="opacity:1" fill="#fffaf6" d="M 725.5,372.5 C 724.167,372.5 722.833,372.5 721.5,372.5C 721.194,375.385 721.527,378.052 722.5,380.5C 723.5,380.5 724.5,380.5 725.5,380.5C 725.5,381.833 725.5,383.167 725.5,384.5C 722.315,384.98 719.481,384.314 717,382.5C 716.9,378.798 716.067,375.298 714.5,372C 715.818,370.01 717.152,368.01 718.5,366C 719.448,365.517 720.448,365.351 721.5,365.5C 721.5,366.5 721.5,367.5 721.5,368.5C 722.833,368.5 724.167,368.5 725.5,368.5C 725.5,369.833 725.5,371.167 725.5,372.5 Z"/></g>
<g><path style="opacity:1" fill="#fff6f1" d="M 701.5,368.5 C 704.93,368.107 708.096,368.773 711,370.5C 712.379,375.036 712.879,379.703 712.5,384.5C 710.278,384.822 708.444,384.155 707,382.5C 704,385.167 701,385.167 698,382.5C 697.333,380.833 697.333,379.167 698,377.5C 700.433,375.374 703.266,374.041 706.5,373.5C 704.647,372.24 702.814,372.24 701,373.5C 698.99,371.604 699.157,369.937 701.5,368.5 Z"/></g>
<g><path style="opacity:1" fill="#ffb78a" d="M 725.5,372.5 C 724.791,373.404 723.791,373.737 722.5,373.5C 722.5,375.833 722.5,378.167 722.5,380.5C 721.527,378.052 721.194,375.385 721.5,372.5C 722.833,372.5 724.167,372.5 725.5,372.5 Z"/></g>
<g><path style="opacity:1" fill="#ff9a5b" d="M 703.5,377.5 C 704.5,377.5 705.5,377.5 706.5,377.5C 706.5,378.5 706.5,379.5 706.5,380.5C 705.5,380.5 704.5,380.5 703.5,380.5C 703.5,379.5 703.5,378.5 703.5,377.5 Z"/></g>
<g><path style="opacity:1" fill="#ff914d" d="M 914.5,411.5 C 1026.5,411.333 1138.5,411.5 1250.5,412C 1263.56,414.73 1271.73,422.563 1275,435.5C 1275.67,525.833 1275.67,616.167 1275,706.5C 1272.05,720.454 1263.55,728.621 1249.5,731C 1137.83,731.667 1026.17,731.667 914.5,731C 901.666,727.168 894.166,718.668 892,705.5C 891.333,615.167 891.333,524.833 892,434.5C 895.71,422.958 903.21,415.291 914.5,411.5 Z"/></g>
<g><path style="opacity:1" fill="#ff914d" d="M 666.5,431.5 C 701.168,431.333 735.835,431.5 770.5,432C 782.783,435.065 788.283,442.898 787,455.5C 785.049,464.451 779.549,469.617 770.5,471C 735.833,471.667 701.167,471.667 666.5,471C 653.813,465.972 649.313,456.805 653,443.5C 655.85,437.514 660.35,433.514 666.5,431.5 Z"/></g>
<g><path style="opacity:1" fill="#ff924f" d="M 807.5,435.5 C 823.167,435.658 829.334,443.324 826,458.5C 818.08,469.198 809.08,470.198 799,461.5C 792.739,449.783 795.573,441.116 807.5,435.5 Z"/></g>
<g><path style="opacity:1" fill="#ff924f" d="M 847.5,435.5 C 863.167,435.658 869.334,443.324 866,458.5C 858.08,469.198 849.08,470.198 839,461.5C 832.739,449.783 835.573,441.116 847.5,435.5 Z"/></g>
<g><path style="opacity:1" fill="#fffefd" d="M 936.5,443.5 C 965.169,443.333 993.835,443.5 1022.5,444C 1040.95,451.398 1047.12,464.564 1041,483.5C 1036.86,491.644 1030.36,496.811 1021.5,499C 992.105,499.976 962.772,499.642 933.5,498C 919.367,491.237 913.534,480.07 916,464.5C 919.685,454.316 926.519,447.316 936.5,443.5 Z"/></g>
<g><path style="opacity:1" fill="#ff914d" d="M 643.5,467.5 C 646.886,479.388 654.553,487.221 666.5,491C 731.167,491.667 795.833,491.667 860.5,491C 872.433,487.401 879.933,479.568 883,467.5C 883.667,546.833 883.667,626.167 883,705.5C 880.834,718.668 873.334,727.168 860.5,731C 795.833,731.667 731.167,731.667 666.5,731C 653.666,727.168 646.166,718.668 644,705.5C 643.5,626.167 643.333,546.834 643.5,467.5 Z"/></g>
<g><path style="opacity:1" fill="#fffdfd" d="M 1146.5,499.5 C 1175.21,499.042 1203.88,499.542 1232.5,501C 1248.35,507.87 1254.19,519.704 1250,536.5C 1246.13,547.036 1238.63,553.203 1227.5,555C 1200.17,555.667 1172.83,555.667 1145.5,555C 1129.38,549.608 1122.22,538.441 1124,521.5C 1127.43,509.903 1134.93,502.57 1146.5,499.5 Z"/></g>
<g><path style="opacity:1" fill="#fffefe" d="M 674.5,507.5 C 733.501,507.333 792.501,507.5 851.5,508C 870.45,514.381 878.283,527.548 875,547.5C 871.933,559.568 864.433,567.401 852.5,571C 793.167,571.667 733.833,571.667 674.5,571C 655.988,563.824 648.488,550.324 652,530.5C 655.71,518.958 663.21,511.291 674.5,507.5 Z"/></g>
<g><path style="opacity:1" fill="#fffefe" d="M 674.5,581.5 C 733.834,581.333 793.168,581.5 852.5,582C 870.716,588.92 878.216,602.087 875,621.5C 871.933,633.568 864.433,641.401 852.5,645C 793.167,645.667 733.833,645.667 674.5,645C 655.988,637.824 648.488,624.324 652,604.5C 655.71,592.958 663.21,585.291 674.5,581.5 Z"/></g>
<g><path style="opacity:1" fill="#fffefe" d="M 674.5,655.5 C 733.834,655.333 793.168,655.5 852.5,656C 870.716,662.92 878.216,676.087 875,695.5C 871.933,707.568 864.433,715.401 852.5,719C 793.167,719.667 733.833,719.667 674.5,719C 655.988,711.824 648.488,698.324 652,678.5C 655.71,666.958 663.21,659.291 674.5,655.5 Z"/></g>
<g><path style="opacity:1" fill="#fffefe" d="M 919.5,667.5 C 1028.83,667.333 1138.17,667.5 1247.5,668C 1266.79,676.088 1271.96,689.588 1263,708.5C 1259.1,713.868 1253.93,717.368 1247.5,719C 1138.17,719.667 1028.83,719.667 919.5,719C 904.478,713.792 897.978,703.292 900,687.5C 903.351,677.65 909.851,670.983 919.5,667.5 Z"/></g>
<g><path style="opacity:1" fill="#ff924f" d="M 1231.5,677.5 C 1247.17,677.658 1253.33,685.324 1250,700.5C 1242.08,711.198 1233.08,712.198 1223,703.5C 1216.74,691.783 1219.57,683.116 1231.5,677.5 Z"/></g>
</svg>
