<svg xmlns="http://www.w3.org/2000/svg" xmlns:xlink="http://www.w3.org/1999/xlink" width="300" zoomAndPan="magnify" viewBox="0 0 224.87999 225" height="300" preserveAspectRatio="xMidYMid meet" version="1.0"><defs><clipPath id="8360361f9c"><path d="M 0 0.0585938 L 224.761719 0.0585938 L 224.761719 224.9375 L 0 224.9375 Z M 0 0.0585938 " clip-rule="nonzero"/></clipPath><clipPath id="942b17b1a8"><path d="M 44.238281 88.539062 L 180.640625 88.539062 L 180.640625 199.132812 L 44.238281 199.132812 Z M 44.238281 88.539062 " clip-rule="nonzero"/></clipPath><clipPath id="03c2f02df3"><path d="M 57.730469 88.539062 L 167.148438 88.539062 C 174.601562 88.539062 180.640625 94.578125 180.640625 102.03125 L 180.640625 185.640625 C 180.640625 193.09375 174.601562 199.132812 167.148438 199.132812 L 57.730469 199.132812 C 50.28125 199.132812 44.238281 193.09375 44.238281 185.640625 L 44.238281 102.03125 C 44.238281 94.578125 50.28125 88.539062 57.730469 88.539062 Z M 57.730469 88.539062 " clip-rule="nonzero"/></clipPath><clipPath id="9de744803b"><path d="M 68.203125 29.550781 L 156.679688 29.550781 L 156.679688 118.03125 L 68.203125 118.03125 Z M 68.203125 29.550781 " clip-rule="nonzero"/></clipPath><clipPath id="3e15717a83"><path d="M 81.695312 29.550781 L 143.1875 29.550781 C 150.636719 29.550781 156.679688 35.59375 156.679688 43.046875 L 156.679688 104.535156 C 156.679688 111.988281 150.636719 118.03125 143.1875 118.03125 L 81.695312 118.03125 C 74.242188 118.03125 68.203125 111.988281 68.203125 104.535156 L 68.203125 43.046875 C 68.203125 35.59375 74.242188 29.550781 81.695312 29.550781 Z M 81.695312 29.550781 " clip-rule="nonzero"/></clipPath><clipPath id="142b142a06"><path d="M 68.203125 70.105469 L 156.679688 70.105469 L 156.679688 121.714844 L 68.203125 121.714844 Z M 68.203125 70.105469 " clip-rule="nonzero"/></clipPath><clipPath id="7115944eb0"><path d="M 81.695312 70.105469 L 143.1875 70.105469 C 150.636719 70.105469 156.679688 76.144531 156.679688 83.597656 L 156.679688 108.222656 C 156.679688 115.675781 150.636719 121.714844 143.1875 121.714844 L 81.695312 121.714844 C 74.242188 121.714844 68.203125 115.675781 68.203125 108.222656 L 68.203125 83.597656 C 68.203125 76.144531 74.242188 70.105469 81.695312 70.105469 Z M 81.695312 70.105469 " clip-rule="nonzero"/></clipPath><clipPath id="9e73312807"><path d="M 55.296875 84.851562 L 73.730469 84.851562 L 73.730469 188.074219 L 55.296875 188.074219 Z M 55.296875 84.851562 " clip-rule="nonzero"/></clipPath><clipPath id="9b25fabfda"><path d="M 64.515625 84.851562 C 69.605469 84.851562 73.730469 88.976562 73.730469 94.066406 L 73.730469 178.859375 C 73.730469 183.949219 69.605469 188.074219 64.515625 188.074219 C 59.425781 188.074219 55.296875 183.949219 55.296875 178.859375 L 55.296875 94.066406 C 55.296875 88.976562 59.425781 84.851562 64.515625 84.851562 Z M 64.515625 84.851562 " clip-rule="nonzero"/></clipPath><clipPath id="c5c5e4a999"><path d="M 60.828125 84.851562 L 97.695312 84.851562 L 97.695312 121.714844 L 60.828125 121.714844 Z M 60.828125 84.851562 " clip-rule="nonzero"/></clipPath><clipPath id="f613acc279"><path d="M 79.261719 84.851562 C 69.082031 84.851562 60.828125 93.101562 60.828125 103.285156 C 60.828125 113.464844 69.082031 121.714844 79.261719 121.714844 C 89.441406 121.714844 97.695312 113.464844 97.695312 103.285156 C 97.695312 93.101562 89.441406 84.851562 79.261719 84.851562 Z M 79.261719 84.851562 " clip-rule="nonzero"/></clipPath><clipPath id="5c90a996e4"><path d="M 147.460938 84.851562 L 165.894531 84.851562 L 165.894531 188.074219 L 147.460938 188.074219 Z M 147.460938 84.851562 " clip-rule="nonzero"/></clipPath><clipPath id="b49ced98ab"><path d="M 156.679688 84.851562 C 161.769531 84.851562 165.894531 88.976562 165.894531 94.066406 L 165.894531 178.859375 C 165.894531 183.949219 161.769531 188.074219 156.679688 188.074219 C 151.589844 188.074219 147.460938 183.949219 147.460938 178.859375 L 147.460938 94.066406 C 147.460938 88.976562 151.589844 84.851562 156.679688 84.851562 Z M 156.679688 84.851562 " clip-rule="nonzero"/></clipPath><clipPath id="61ef330a2b"><path d="M 119.8125 95.910156 L 156.679688 95.910156 L 156.679688 132.777344 L 119.8125 132.777344 Z M 119.8125 95.910156 " clip-rule="nonzero"/></clipPath><clipPath id="3370ff2bc9"><path d="M 138.246094 95.910156 C 128.066406 95.910156 119.8125 104.164062 119.8125 114.34375 C 119.8125 124.523438 128.066406 132.777344 138.246094 132.777344 C 148.425781 132.777344 156.679688 124.523438 156.679688 114.34375 C 156.679688 104.164062 148.425781 95.910156 138.246094 95.910156 Z M 138.246094 95.910156 " clip-rule="nonzero"/></clipPath><clipPath id="614ab49972"><path d="M 127.1875 84.851562 L 164.050781 84.851562 L 164.050781 121.714844 L 127.1875 121.714844 Z M 127.1875 84.851562 " clip-rule="nonzero"/></clipPath><clipPath id="12aef6346a"><path d="M 145.617188 84.851562 C 135.4375 84.851562 127.1875 93.101562 127.1875 103.285156 C 127.1875 113.464844 135.4375 121.714844 145.617188 121.714844 C 155.800781 121.714844 164.050781 113.464844 164.050781 103.285156 C 164.050781 93.101562 155.800781 84.851562 145.617188 84.851562 Z M 145.617188 84.851562 " clip-rule="nonzero"/></clipPath><clipPath id="3ed404b85a"><path d="M 101.378906 92.222656 L 138.246094 92.222656 L 138.246094 129.089844 L 101.378906 129.089844 Z M 101.378906 92.222656 " clip-rule="nonzero"/></clipPath><clipPath id="2a0a7baf24"><path d="M 119.8125 92.222656 C 109.632812 92.222656 101.378906 100.476562 101.378906 110.65625 C 101.378906 120.835938 109.632812 129.089844 119.8125 129.089844 C 129.992188 129.089844 138.246094 120.835938 138.246094 110.65625 C 138.246094 100.476562 129.992188 92.222656 119.8125 92.222656 Z M 119.8125 92.222656 " clip-rule="nonzero"/></clipPath><clipPath id="f85703a7dc"><path d="M 75.574219 99.597656 L 112.441406 99.597656 L 112.441406 136.460938 L 75.574219 136.460938 Z M 75.574219 99.597656 " clip-rule="nonzero"/></clipPath><clipPath id="84d58d0e7e"><path d="M 94.007812 99.597656 C 83.828125 99.597656 75.574219 107.851562 75.574219 118.03125 C 75.574219 128.210938 83.828125 136.460938 94.007812 136.460938 C 104.1875 136.460938 112.441406 128.210938 112.441406 118.03125 C 112.441406 107.851562 104.1875 99.597656 94.007812 99.597656 Z M 94.007812 99.597656 " clip-rule="nonzero"/></clipPath><clipPath id="4a61294dd8"><path d="M 88.476562 88.539062 L 136.402344 88.539062 L 136.402344 103.285156 L 88.476562 103.285156 Z M 88.476562 88.539062 " clip-rule="nonzero"/></clipPath><clipPath id="1861b301e9"><path d="M 95.851562 88.539062 L 129.03125 88.539062 C 130.984375 88.539062 132.859375 89.3125 134.242188 90.695312 C 135.625 92.078125 136.402344 93.953125 136.402344 95.910156 C 136.402344 97.867188 135.625 99.742188 134.242188 101.125 C 132.859375 102.507812 130.984375 103.285156 129.03125 103.285156 L 95.851562 103.285156 C 93.894531 103.285156 92.019531 102.507812 90.636719 101.125 C 89.253906 99.742188 88.476562 97.867188 88.476562 95.910156 C 88.476562 93.953125 89.253906 92.078125 90.636719 90.695312 C 92.019531 89.3125 93.894531 88.539062 95.851562 88.539062 Z M 95.851562 88.539062 " clip-rule="nonzero"/></clipPath><clipPath id="a62cdac713"><path d="M 57.140625 18.492188 L 94.007812 18.492188 L 94.007812 55.359375 L 57.140625 55.359375 Z M 57.140625 18.492188 " clip-rule="nonzero"/></clipPath><clipPath id="d756a8f053"><path d="M 75.574219 18.492188 C 65.394531 18.492188 57.140625 26.746094 57.140625 36.925781 C 57.140625 47.105469 65.394531 55.359375 75.574219 55.359375 C 85.753906 55.359375 94.007812 47.105469 94.007812 36.925781 C 94.007812 26.746094 85.753906 18.492188 75.574219 18.492188 Z M 75.574219 18.492188 " clip-rule="nonzero"/></clipPath><clipPath id="c44fc8b82d"><path d="M 88.476562 11.121094 L 125.34375 11.121094 L 125.34375 47.984375 L 88.476562 47.984375 Z M 88.476562 11.121094 " clip-rule="nonzero"/></clipPath><clipPath id="ceefbcca1b"><path d="M 106.910156 11.121094 C 96.730469 11.121094 88.476562 19.371094 88.476562 29.550781 C 88.476562 39.734375 96.730469 47.984375 106.910156 47.984375 C 117.089844 47.984375 125.34375 39.734375 125.34375 29.550781 C 125.34375 19.371094 117.089844 11.121094 106.910156 11.121094 Z M 106.910156 11.121094 " clip-rule="nonzero"/></clipPath><clipPath id="e60cf5c424"><path d="M 68.203125 18.492188 L 156.679688 18.492188 L 156.679688 47.984375 L 68.203125 47.984375 Z M 68.203125 18.492188 " clip-rule="nonzero"/></clipPath><clipPath id="e28672ccc0"><path d="M 81.695312 18.492188 L 143.1875 18.492188 C 150.636719 18.492188 156.679688 24.535156 156.679688 31.984375 L 156.679688 34.492188 C 156.679688 41.945312 150.636719 47.984375 143.1875 47.984375 L 81.695312 47.984375 C 74.242188 47.984375 68.203125 41.945312 68.203125 34.492188 L 68.203125 31.984375 C 68.203125 24.535156 74.242188 18.492188 81.695312 18.492188 Z M 81.695312 18.492188 " clip-rule="nonzero"/></clipPath><clipPath id="34da5d2deb"><path d="M 64.515625 0.0585938 L 101.378906 0.0585938 L 101.378906 36.925781 L 64.515625 36.925781 Z M 64.515625 0.0585938 " clip-rule="nonzero"/></clipPath><clipPath id="a5158fed00"><path d="M 82.949219 0.0585938 C 72.765625 0.0585938 64.515625 8.3125 64.515625 18.492188 C 64.515625 28.671875 72.765625 36.925781 82.949219 36.925781 C 93.128906 36.925781 101.378906 28.671875 101.378906 18.492188 C 101.378906 8.3125 93.128906 0.0585938 82.949219 0.0585938 Z M 82.949219 0.0585938 " clip-rule="nonzero"/></clipPath><clipPath id="ea557ab420"><path d="M 71.886719 12.964844 L 105.066406 12.964844 L 105.066406 46.140625 L 71.886719 46.140625 Z M 71.886719 12.964844 " clip-rule="nonzero"/></clipPath><clipPath id="4a76cc6e3e"><path d="M 88.476562 12.964844 C 79.316406 12.964844 71.886719 20.390625 71.886719 29.550781 C 71.886719 38.714844 79.316406 46.140625 88.476562 46.140625 C 97.640625 46.140625 105.066406 38.714844 105.066406 29.550781 C 105.066406 20.390625 97.640625 12.964844 88.476562 12.964844 Z M 88.476562 12.964844 " clip-rule="nonzero"/></clipPath><clipPath id="adad56e790"><path d="M 44.238281 165.957031 L 180.640625 165.957031 L 180.640625 224.9375 L 44.238281 224.9375 Z M 44.238281 165.957031 " clip-rule="nonzero"/></clipPath><clipPath id="e5a0996797"><path d="M 57.730469 165.957031 L 167.148438 165.957031 C 174.601562 165.957031 180.640625 171.996094 180.640625 179.449219 L 180.640625 211.445312 C 180.640625 218.898438 174.601562 224.941406 167.148438 224.941406 L 57.730469 224.941406 C 50.28125 224.941406 44.238281 218.898438 44.238281 211.445312 L 44.238281 179.449219 C 44.238281 171.996094 50.28125 165.957031 57.730469 165.957031 Z M 57.730469 165.957031 " clip-rule="nonzero"/></clipPath></defs><g clip-path="url(#8360361f9c)"><path fill="transparent" d="M 0 0.0585938 L 224.878906 0.0585938 L 224.878906 224.941406 L 0 224.941406 Z M 0 0.0585938 " fill-opacity="1" fill-rule="nonzero"/><path fill="transparent" d="M 0 0.0585938 L 224.878906 0.0585938 L 224.878906 224.941406 L 0 224.941406 Z M 0 0.0585938 " fill-opacity="1" fill-rule="nonzero"/></g><g clip-path="url(#942b17b1a8)"><g clip-path="url(#03c2f02df3)"><path fill="#761403" d="M 44.238281 88.539062 L 180.640625 88.539062 L 180.640625 199.132812 L 44.238281 199.132812 Z M 44.238281 88.539062 " fill-opacity="1" fill-rule="nonzero"/></g></g><g clip-path="url(#9de744803b)"><g clip-path="url(#3e15717a83)"><path fill="#ffde59" d="M 68.203125 29.550781 L 156.679688 29.550781 L 156.679688 118.03125 L 68.203125 118.03125 Z M 68.203125 29.550781 " fill-opacity="1" fill-rule="nonzero"/></g></g><g clip-path="url(#142b142a06)"><g clip-path="url(#7115944eb0)"><path fill="#522102" d="M 68.203125 70.105469 L 156.679688 70.105469 L 156.679688 121.714844 L 68.203125 121.714844 Z M 68.203125 70.105469 " fill-opacity="1" fill-rule="nonzero"/></g></g><g clip-path="url(#9e73312807)"><g clip-path="url(#9b25fabfda)"><path fill="#171514" d="M 55.296875 84.851562 L 73.730469 84.851562 L 73.730469 188.074219 L 55.296875 188.074219 Z M 55.296875 84.851562 " fill-opacity="1" fill-rule="nonzero"/></g></g><g clip-path="url(#c5c5e4a999)"><g clip-path="url(#f613acc279)"><path fill="#522102" d="M 60.828125 84.851562 L 97.695312 84.851562 L 97.695312 121.714844 L 60.828125 121.714844 Z M 60.828125 84.851562 " fill-opacity="1" fill-rule="nonzero"/></g></g><g clip-path="url(#5c90a996e4)"><g clip-path="url(#b49ced98ab)"><path fill="#171514" d="M 147.460938 84.851562 L 165.894531 84.851562 L 165.894531 188.074219 L 147.460938 188.074219 Z M 147.460938 84.851562 " fill-opacity="1" fill-rule="nonzero"/></g></g><g clip-path="url(#61ef330a2b)"><g clip-path="url(#3370ff2bc9)"><path fill="#401a02" d="M 119.8125 95.910156 L 156.679688 95.910156 L 156.679688 132.777344 L 119.8125 132.777344 Z M 119.8125 95.910156 " fill-opacity="1" fill-rule="nonzero"/></g></g><g clip-path="url(#614ab49972)"><g clip-path="url(#12aef6346a)"><path fill="#522102" d="M 127.1875 84.851562 L 164.050781 84.851562 L 164.050781 121.714844 L 127.1875 121.714844 Z M 127.1875 84.851562 " fill-opacity="1" fill-rule="nonzero"/></g></g><g clip-path="url(#3ed404b85a)"><g clip-path="url(#2a0a7baf24)"><path fill="#522102" d="M 101.378906 92.222656 L 138.246094 92.222656 L 138.246094 129.089844 L 101.378906 129.089844 Z M 101.378906 92.222656 " fill-opacity="1" fill-rule="nonzero"/></g></g><g clip-path="url(#f85703a7dc)"><g clip-path="url(#84d58d0e7e)"><path fill="#522102" d="M 75.574219 99.597656 L 112.441406 99.597656 L 112.441406 136.460938 L 75.574219 136.460938 Z M 75.574219 99.597656 " fill-opacity="1" fill-rule="nonzero"/></g></g><g clip-path="url(#4a61294dd8)"><g clip-path="url(#1861b301e9)"><path fill="#ffde59" d="M 88.476562 88.539062 L 136.402344 88.539062 L 136.402344 103.285156 L 88.476562 103.285156 Z M 88.476562 88.539062 " fill-opacity="1" fill-rule="nonzero"/></g></g><g clip-path="url(#a62cdac713)"><g clip-path="url(#d756a8f053)"><path fill="#522102" d="M 57.140625 18.492188 L 94.007812 18.492188 L 94.007812 55.359375 L 57.140625 55.359375 Z M 57.140625 18.492188 " fill-opacity="1" fill-rule="nonzero"/></g></g><g clip-path="url(#c44fc8b82d)"><g clip-path="url(#ceefbcca1b)"><path fill="#401a02" d="M 88.476562 11.121094 L 125.34375 11.121094 L 125.34375 47.984375 L 88.476562 47.984375 Z M 88.476562 11.121094 " fill-opacity="1" fill-rule="nonzero"/></g></g><g clip-path="url(#e60cf5c424)"><g clip-path="url(#e28672ccc0)"><path fill="#522102" d="M 68.203125 18.492188 L 156.679688 18.492188 L 156.679688 47.984375 L 68.203125 47.984375 Z M 68.203125 18.492188 " fill-opacity="1" fill-rule="nonzero"/></g></g><g clip-path="url(#34da5d2deb)"><g clip-path="url(#a5158fed00)"><path fill="#622904" d="M 64.515625 0.0585938 L 101.378906 0.0585938 L 101.378906 36.925781 L 64.515625 36.925781 Z M 64.515625 0.0585938 " fill-opacity="1" fill-rule="nonzero"/></g></g><g clip-path="url(#ea557ab420)"><g clip-path="url(#4a76cc6e3e)"><path fill="#522102" d="M 71.886719 12.964844 L 105.066406 12.964844 L 105.066406 46.140625 L 71.886719 46.140625 Z M 71.886719 12.964844 " fill-opacity="1" fill-rule="nonzero"/></g></g><g clip-path="url(#adad56e790)"><g clip-path="url(#e5a0996797)"><path fill="#171514" d="M 44.238281 165.957031 L 180.640625 165.957031 L 180.640625 224.941406 L 44.238281 224.941406 Z M 44.238281 165.957031 " fill-opacity="1" fill-rule="nonzero"/></g></g></svg>