<svg xmlns="http://www.w3.org/2000/svg" xmlns:xlink="http://www.w3.org/1999/xlink" width="70" zoomAndPan="magnify" viewBox="0 0 52.5 52.499999" height="70" preserveAspectRatio="xMidYMid meet" version="1.0"><defs><clipPath id="945575bc5f"><path d="M 0 0 L 52.003906 0 L 52.003906 52.003906 L 0 52.003906 Z M 0 0 " clip-rule="nonzero"/></clipPath><clipPath id="c1abaddc8f"><path d="M 11.234375 0 L 41.199219 0 L 41.199219 12.699219 L 11.234375 12.699219 Z M 11.234375 0 " clip-rule="nonzero"/></clipPath><clipPath id="8f2e9b71b8"><path d="M 26.214844 0 L 41.199219 6.351562 L 26.214844 12.699219 L 11.234375 6.351562 Z M 26.214844 0 " clip-rule="nonzero"/></clipPath><clipPath id="d94a508f43"><path d="M 18.476562 4.269531 L 33.957031 4.269531 L 33.957031 18.761719 L 18.476562 18.761719 Z M 18.476562 4.269531 " clip-rule="nonzero"/></clipPath><clipPath id="f05b867e43"><path d="M 20.726562 4.269531 L 31.707031 4.269531 C 32.304688 4.269531 32.875 4.503906 33.296875 4.925781 C 33.71875 5.347656 33.957031 5.921875 33.957031 6.519531 L 33.957031 16.511719 C 33.957031 17.109375 33.71875 17.679688 33.296875 18.101562 C 32.875 18.523438 32.304688 18.761719 31.707031 18.761719 L 20.726562 18.761719 C 20.128906 18.761719 19.554688 18.523438 19.132812 18.101562 C 18.710938 17.679688 18.476562 17.109375 18.476562 16.511719 L 18.476562 6.519531 C 18.476562 5.921875 18.710938 5.347656 19.132812 4.925781 C 19.554688 4.503906 20.128906 4.269531 20.726562 4.269531 Z M 20.726562 4.269531 " clip-rule="nonzero"/></clipPath><clipPath id="fa5023af9a"><path d="M 35.554688 17.578125 L 38.714844 17.578125 L 38.714844 19.945312 L 35.554688 19.945312 Z M 35.554688 17.578125 " clip-rule="nonzero"/></clipPath><clipPath id="cabe6adc82"><path d="M 36.34375 17.578125 L 37.925781 17.578125 L 38.714844 19.945312 L 35.554688 19.945312 Z M 36.34375 17.578125 " clip-rule="nonzero"/></clipPath><clipPath id="6cb7d77abf"><path d="M 11.300781 29.421875 L 41.199219 29.421875 L 41.199219 51.828125 L 11.300781 51.828125 Z M 11.300781 29.421875 " clip-rule="nonzero"/></clipPath><clipPath id="185b12d8f9"><path d="M 21.273438 51.28125 C 22.804688 51.613281 24.546875 51.828125 26.257812 51.828125 C 27.96875 51.828125 29.613281 51.644531 31.128906 51.3125 C 31.164062 51.300781 31.195312 51.300781 31.226562 51.292969 C 36.921875 49.96875 41.117188 46.476562 41.199219 42.417969 L 41.199219 29.421875 L 11.300781 29.421875 L 11.300781 42.410156 C 11.382812 46.5 15.511719 49.992188 21.273438 51.28125 Z M 21.273438 51.28125 " clip-rule="nonzero"/></clipPath><clipPath id="3d890d7c89"><path d="M 11.300781 20.339844 L 41.199219 20.339844 L 41.199219 38.5 L 11.300781 38.5 Z M 11.300781 20.339844 " clip-rule="nonzero"/></clipPath><clipPath id="ccd85688ce"><path d="M 21.273438 20.886719 C 22.800781 20.554688 24.546875 20.339844 26.257812 20.339844 C 27.96875 20.339844 29.613281 20.523438 31.128906 20.855469 C 31.164062 20.863281 31.195312 20.863281 31.226562 20.875 C 36.921875 22.199219 41.117188 25.6875 41.199219 29.652344 L 41.199219 38.5 L 11.300781 38.5 L 11.300781 29.660156 C 11.382812 25.667969 15.511719 22.175781 21.273438 20.886719 Z M 21.273438 20.886719 " clip-rule="nonzero"/></clipPath></defs><g clip-path="url(#945575bc5f)"><path fill="" d="M 0 0 L 52.5 0 L 52.5 52.5 L 0 52.5 Z M 0 0 " fill-opacity="1" fill-rule="nonzero"/><path fill="#fff" d="M 0 0 L 52.5 0 L 52.5 52.5 L 0 52.5 Z M 0 0 " fill-opacity="1" fill-rule="nonzero"/></g><path stroke-linecap="butt" transform="matrix(-0.0276332, -1.195666, 1.242372, -0.0287126, 36.65859, 18.756842)" fill="none" stroke-linejoin="miter" d="M 0.000220571 0.501192 L 10.399136 0.499817 " stroke="#004b91" stroke-width="1" stroke-opacity="1" stroke-miterlimit="4"/><g clip-path="url(#c1abaddc8f)"><g clip-path="url(#8f2e9b71b8)"><path fill="#004b91" d="M 11.234375 0 L 41.199219 0 L 41.199219 12.699219 L 11.234375 12.699219 Z M 11.234375 0 " fill-opacity="1" fill-rule="nonzero"/></g></g><g clip-path="url(#d94a508f43)"><g clip-path="url(#f05b867e43)"><path fill="#004b91" d="M 18.476562 4.269531 L 33.957031 4.269531 L 33.957031 18.761719 L 18.476562 18.761719 Z M 18.476562 4.269531 " fill-opacity="1" fill-rule="nonzero"/></g></g><g clip-path="url(#fa5023af9a)"><g clip-path="url(#cabe6adc82)"><path fill="#004b91" d="M 35.554688 17.578125 L 38.714844 17.578125 L 38.714844 19.945312 L 35.554688 19.945312 Z M 35.554688 17.578125 " fill-opacity="1" fill-rule="nonzero"/></g></g><g clip-path="url(#6cb7d77abf)"><g clip-path="url(#185b12d8f9)"><path fill="#d5a10f" d="M 11.300781 29.421875 L 41.199219 29.421875 L 41.199219 51.828125 L 11.300781 51.828125 Z M 11.300781 29.421875 " fill-opacity="1" fill-rule="nonzero"/></g></g><g clip-path="url(#3d890d7c89)"><g clip-path="url(#ccd85688ce)"><path fill="#d5a10f" d="M 11.300781 20.339844 L 41.199219 20.339844 L 41.199219 38.5 L 11.300781 38.5 Z M 11.300781 20.339844 " fill-opacity="1" fill-rule="nonzero"/></g></g></svg>