<svg xmlns="http://www.w3.org/2000/svg" xmlns:xlink="http://www.w3.org/1999/xlink" width="70" zoomAndPan="magnify" viewBox="0 0 52.5 52.499999" height="70" preserveAspectRatio="xMidYMid meet" version="1.0"><defs><clipPath id="2626a4dc0a"><path d="M 0 0 L 52.003906 0 L 52.003906 52.003906 L 0 52.003906 Z M 0 0 " clip-rule="nonzero"/></clipPath><clipPath id="ddf8938471"><path d="M 11.300781 29.417969 L 41.199219 29.417969 L 41.199219 51.828125 L 11.300781 51.828125 Z M 11.300781 29.417969 " clip-rule="nonzero"/></clipPath><clipPath id="a8fcc78349"><path d="M 21.273438 51.28125 C 22.804688 51.613281 24.546875 51.828125 26.257812 51.828125 C 27.96875 51.828125 29.613281 51.644531 31.128906 51.3125 C 31.164062 51.300781 31.195312 51.300781 31.226562 51.292969 C 36.921875 49.96875 41.117188 46.476562 41.199219 42.417969 L 41.199219 29.417969 L 11.300781 29.417969 L 11.300781 42.410156 C 11.382812 46.5 15.511719 49.992188 21.273438 51.28125 Z M 21.273438 51.28125 " clip-rule="nonzero"/></clipPath><clipPath id="b1fb2dca15"><path d="M 11.300781 20.339844 L 41.199219 20.339844 L 41.199219 38.5 L 11.300781 38.5 Z M 11.300781 20.339844 " clip-rule="nonzero"/></clipPath><clipPath id="2835c8a16b"><path d="M 21.273438 20.886719 C 22.800781 20.554688 24.546875 20.339844 26.257812 20.339844 C 27.96875 20.339844 29.613281 20.523438 31.128906 20.855469 C 31.164062 20.863281 31.195312 20.863281 31.226562 20.875 C 36.921875 22.199219 41.117188 25.6875 41.199219 29.652344 L 41.199219 38.5 L 11.300781 38.5 L 11.300781 29.660156 C 11.382812 25.667969 15.511719 22.175781 21.273438 20.886719 Z M 21.273438 20.886719 " clip-rule="nonzero"/></clipPath><clipPath id="0216071259"><path d="M 17.210938 0.671875 L 35.289062 0.671875 L 35.289062 18.746094 L 17.210938 18.746094 Z M 17.210938 0.671875 " clip-rule="nonzero"/></clipPath><clipPath id="e2717f9a1f"><path d="M 20.035156 0.671875 L 32.464844 0.671875 C 34.023438 0.671875 35.289062 1.9375 35.289062 3.496094 L 35.289062 15.921875 C 35.289062 17.484375 34.023438 18.746094 32.464844 18.746094 L 20.035156 18.746094 C 18.476562 18.746094 17.210938 17.484375 17.210938 15.921875 L 17.210938 3.496094 C 17.210938 1.9375 18.476562 0.671875 20.035156 0.671875 Z M 20.035156 0.671875 " clip-rule="nonzero"/></clipPath><clipPath id="97851b1912"><path d="M 25.449219 26.996094 L 41.199219 26.996094 L 41.199219 45.171875 L 25.449219 45.171875 Z M 25.449219 26.996094 " clip-rule="nonzero"/></clipPath><clipPath id="7040c103c8"><path d="M 27.699219 26.996094 L 38.949219 26.996094 C 39.542969 26.996094 40.117188 27.234375 40.539062 27.65625 C 40.960938 28.078125 41.199219 28.648438 41.199219 29.246094 L 41.199219 42.921875 C 41.199219 43.519531 40.960938 44.089844 40.539062 44.511719 C 40.117188 44.933594 39.542969 45.171875 38.949219 45.171875 L 27.699219 45.171875 C 27.101562 45.171875 26.527344 44.933594 26.105469 44.511719 C 25.683594 44.089844 25.449219 43.519531 25.449219 42.921875 L 25.449219 29.246094 C 25.449219 28.648438 25.683594 28.078125 26.105469 27.65625 C 26.527344 27.234375 27.101562 26.996094 27.699219 26.996094 Z M 27.699219 26.996094 " clip-rule="nonzero"/></clipPath><clipPath id="a24abab71d"><path d="M 26.25 28.207031 L 41.199219 28.207031 L 41.199219 43.957031 L 26.25 43.957031 Z M 26.25 28.207031 " clip-rule="nonzero"/></clipPath><clipPath id="7f905890cf"><path d="M 28.5 28.207031 L 38.949219 28.207031 C 39.542969 28.207031 40.117188 28.445312 40.539062 28.867188 C 40.960938 29.289062 41.199219 29.863281 41.199219 30.457031 L 41.199219 41.707031 C 41.199219 42.304688 40.960938 42.878906 40.539062 43.300781 C 40.117188 43.722656 39.542969 43.957031 38.949219 43.957031 L 28.5 43.957031 C 27.902344 43.957031 27.332031 43.722656 26.910156 43.300781 C 26.488281 42.878906 26.25 42.304688 26.25 41.707031 L 26.25 30.457031 C 26.25 29.863281 26.488281 29.289062 26.910156 28.867188 C 27.332031 28.445312 27.902344 28.207031 28.5 28.207031 Z M 28.5 28.207031 " clip-rule="nonzero"/></clipPath><clipPath id="365c90e4eb"><path d="M 28.089844 26.996094 L 41.199219 26.996094 L 41.199219 45.171875 L 28.089844 45.171875 Z M 28.089844 26.996094 " clip-rule="nonzero"/></clipPath><clipPath id="ab055ccae2"><path d="M 30.339844 26.996094 L 38.949219 26.996094 C 39.542969 26.996094 40.117188 27.234375 40.539062 27.65625 C 40.960938 28.078125 41.199219 28.648438 41.199219 29.246094 L 41.199219 42.921875 C 41.199219 43.519531 40.960938 44.089844 40.539062 44.511719 C 40.117188 44.933594 39.542969 45.171875 38.949219 45.171875 L 30.339844 45.171875 C 29.746094 45.171875 29.171875 44.933594 28.75 44.511719 C 28.328125 44.089844 28.089844 43.519531 28.089844 42.921875 L 28.089844 29.246094 C 28.089844 28.648438 28.328125 28.078125 28.75 27.65625 C 29.171875 27.234375 29.746094 26.996094 30.339844 26.996094 Z M 30.339844 26.996094 " clip-rule="nonzero"/></clipPath><clipPath id="5815dd571f"><path d="M 35.289062 34.351562 L 42.304688 34.351562 L 42.304688 42.085938 L 35.289062 42.085938 Z M 35.289062 34.351562 " clip-rule="nonzero"/></clipPath><clipPath id="c2d1bcf9ae"><path d="M 37.539062 34.351562 L 40.054688 34.351562 C 40.648438 34.351562 41.222656 34.589844 41.644531 35.011719 C 42.066406 35.433594 42.304688 36.003906 42.304688 36.601562 L 42.304688 39.835938 C 42.304688 40.433594 42.066406 41.003906 41.644531 41.425781 C 41.222656 41.847656 40.648438 42.085938 40.054688 42.085938 L 37.539062 42.085938 C 36.941406 42.085938 36.367188 41.847656 35.945312 41.425781 C 35.523438 41.003906 35.289062 40.433594 35.289062 39.835938 L 35.289062 36.601562 C 35.289062 36.003906 35.523438 35.433594 35.945312 35.011719 C 36.367188 34.589844 36.941406 34.351562 37.539062 34.351562 Z M 37.539062 34.351562 " clip-rule="nonzero"/></clipPath></defs><g clip-path="url(#2626a4dc0a)"><path fill="#ffffff" d="M 0 0 L 52.5 0 L 52.5 52.5 L 0 52.5 Z M 0 0 " fill-opacity="1" fill-rule="nonzero"/><path fill="#ffffff" d="M 0 0 L 52.5 0 L 52.5 52.5 L 0 52.5 Z M 0 0 " fill-opacity="1" fill-rule="nonzero"/></g><g clip-path="url(#ddf8938471)"><g clip-path="url(#a8fcc78349)"><path fill="#d5a10f" d="M 11.300781 29.417969 L 41.199219 29.417969 L 41.199219 51.828125 L 11.300781 51.828125 Z M 11.300781 29.417969 " fill-opacity="1" fill-rule="nonzero"/></g></g><g clip-path="url(#b1fb2dca15)"><g clip-path="url(#2835c8a16b)"><path fill="#d5a10f" d="M 11.300781 20.339844 L 41.199219 20.339844 L 41.199219 38.5 L 11.300781 38.5 Z M 11.300781 20.339844 " fill-opacity="1" fill-rule="nonzero"/></g></g><g clip-path="url(#0216071259)"><g clip-path="url(#e2717f9a1f)"><path fill="#004b91" d="M 17.210938 0.671875 L 35.289062 0.671875 L 35.289062 18.746094 L 17.210938 18.746094 Z M 17.210938 0.671875 " fill-opacity="1" fill-rule="nonzero"/></g></g><g clip-path="url(#97851b1912)"><g clip-path="url(#7040c103c8)"><path fill="#004b91" d="M 25.449219 26.996094 L 41.199219 26.996094 L 41.199219 45.171875 L 25.449219 45.171875 Z M 25.449219 26.996094 " fill-opacity="1" fill-rule="nonzero"/></g></g><g clip-path="url(#a24abab71d)"><g clip-path="url(#7f905890cf)"><path fill="#d5a10f" d="M 26.25 28.207031 L 41.199219 28.207031 L 41.199219 43.957031 L 26.25 43.957031 Z M 26.25 28.207031 " fill-opacity="1" fill-rule="nonzero"/></g></g><g clip-path="url(#365c90e4eb)"><g clip-path="url(#ab055ccae2)"><path fill="#004b91" d="M 28.089844 26.996094 L 41.199219 26.996094 L 41.199219 45.171875 L 28.089844 45.171875 Z M 28.089844 26.996094 " fill-opacity="1" fill-rule="nonzero"/></g></g><g clip-path="url(#5815dd571f)"><g clip-path="url(#c2d1bcf9ae)"><path fill="#d5a10f" d="M 35.289062 34.351562 L 42.304688 34.351562 L 42.304688 42.085938 L 35.289062 42.085938 Z M 35.289062 34.351562 " fill-opacity="1" fill-rule="nonzero"/></g></g></svg>