<svg xmlns="http://www.w3.org/2000/svg" xmlns:xlink="http://www.w3.org/1999/xlink" width="70" zoomAndPan="magnify" viewBox="0 0 52.5 52.499999" height="70" preserveAspectRatio="xMidYMid meet" version="1.0"><defs><clipPath id="64b84f9d62"><path d="M 0 0 L 52.003906 0 L 52.003906 52.003906 L 0 52.003906 Z M 0 0 " clip-rule="nonzero"/></clipPath><clipPath id="3cc66714cb"><path d="M 11.300781 31.761719 L 41.199219 31.761719 L 41.199219 51.828125 L 11.300781 51.828125 Z M 11.300781 31.761719 " clip-rule="nonzero"/></clipPath><clipPath id="8ae82f7a19"><path d="M 21.273438 51.28125 C 22.804688 51.613281 24.546875 51.828125 26.257812 51.828125 C 27.96875 51.828125 29.613281 51.644531 31.128906 51.3125 C 31.164062 51.300781 31.195312 51.300781 31.226562 51.292969 C 36.921875 49.96875 41.117188 46.476562 41.199219 42.472656 L 41.199219 31.761719 L 11.300781 31.761719 L 11.300781 42.464844 C 11.382812 46.5 15.511719 49.992188 21.273438 51.28125 Z M 21.273438 51.28125 " clip-rule="nonzero"/></clipPath><clipPath id="cd542091a6"><path d="M 11.300781 20.339844 L 41.199219 20.339844 L 41.199219 38.5 L 11.300781 38.5 Z M 11.300781 20.339844 " clip-rule="nonzero"/></clipPath><clipPath id="05600d5e9c"><path d="M 21.273438 20.886719 C 22.800781 20.554688 24.546875 20.339844 26.257812 20.339844 C 27.96875 20.339844 29.613281 20.523438 31.128906 20.855469 C 31.164062 20.863281 31.195312 20.863281 31.226562 20.875 C 36.921875 22.199219 41.117188 25.6875 41.199219 29.652344 L 41.199219 38.5 L 11.300781 38.5 L 11.300781 29.660156 C 11.382812 25.667969 15.511719 22.175781 21.273438 20.886719 Z M 21.273438 20.886719 " clip-rule="nonzero"/></clipPath><clipPath id="09bee2f2ff"><path d="M 15.664062 1.210938 L 36.835938 1.210938 L 36.835938 19.410156 L 15.664062 19.410156 Z M 15.664062 1.210938 " clip-rule="nonzero"/></clipPath><clipPath id="c68285f32a"><path d="M 36.835938 10.3125 L 31.542969 19.410156 L 20.957031 19.410156 L 15.664062 10.3125 L 20.957031 1.210938 L 31.542969 1.210938 Z M 36.835938 10.3125 " clip-rule="nonzero"/></clipPath></defs><g clip-path="url(#64b84f9d62)"><path fill="#ffffff" d="M 0 0 L 52.5 0 L 52.5 52.5 L 0 52.5 Z M 0 0 " fill-opacity="1" fill-rule="nonzero"/><path fill="#ffffff" d="M 0 0 L 52.5 0 L 52.5 52.5 L 0 52.5 Z M 0 0 " fill-opacity="1" fill-rule="nonzero"/></g><g clip-path="url(#3cc66714cb)"><g clip-path="url(#8ae82f7a19)"><path fill="#d5a10f" d="M 11.300781 31.761719 L 41.199219 31.761719 L 41.199219 51.828125 L 11.300781 51.828125 Z M 11.300781 31.761719 " fill-opacity="1" fill-rule="nonzero"/></g></g><g clip-path="url(#cd542091a6)"><g clip-path="url(#05600d5e9c)"><path fill="#d5a10f" d="M 11.300781 20.339844 L 41.199219 20.339844 L 41.199219 38.5 L 11.300781 38.5 Z M 11.300781 20.339844 " fill-opacity="1" fill-rule="nonzero"/></g></g><g clip-path="url(#09bee2f2ff)"><g clip-path="url(#c68285f32a)"><path fill="#004b91" d="M 15.664062 1.210938 L 36.835938 1.210938 L 36.835938 19.410156 L 15.664062 19.410156 Z M 15.664062 1.210938 " fill-opacity="1" fill-rule="nonzero"/></g></g></svg>