<?xml version="1.0" standalone="no"?>
<!DOCTYPE svg PUBLIC "-//W3C//DTD SVG 20010904//EN"
 "http://www.w3.org/TR/2001/REC-SVG-20010904/DTD/svg10.dtd">
<svg version="1.0" xmlns="http://www.w3.org/2000/svg"
 width="512.000000pt" height="512.000000pt" viewBox="0 0 512.000000 512.000000"
 preserveAspectRatio="xMidYMid meet">

<g transform="translate(0.000000,512.000000) scale(0.100000,-0.100000)"
fill="#000000" stroke="none">
<path d="M1553 4620 c-133 -35 -225 -100 -301 -214 -65 -97 -106 -198 -147
-364 -38 -151 -125 -609 -117 -617 7 -7 3137 -7 3144 0 7 8 -79 463 -117 617
-87 349 -219 519 -451 578 -98 25 -190 25 -286 1 -109 -28 -184 -70 -299 -167
-220 -184 -333 -234 -475 -212 -101 16 -191 69 -366 215 -58 49 -132 101 -163
116 -131 65 -287 82 -422 47z"/>
<path d="M925 3108 c-2 -7 -11 -57 -20 -110 l-17 -98 -246 0 c-136 0 -274 -4
-306 -10 -275 -45 -421 -356 -280 -595 37 -64 125 -140 192 -167 l57 -23 2255
0 2255 0 57 23 c67 27 155 103 192 167 141 240 -5 550 -281 595 -32 6 -169 10
-305 10 l-246 0 -17 98 c-9 53 -18 103 -20 110 -4 9 -339 12 -1635 12 -1296 0
-1631 -3 -1635 -12z"/>
<path d="M1505 1935 c-156 -29 -271 -91 -385 -205 -96 -96 -148 -177 -187
-295 -25 -72 -27 -94 -27 -225 0 -137 1 -150 31 -233 43 -123 85 -189 183
-288 71 -72 101 -93 180 -132 128 -63 200 -81 335 -81 135 0 207 18 334 80 79
39 109 61 181 133 144 145 208 287 218 483 4 86 8 108 21 114 31 13 246 17
303 5 l55 -12 5 -107 c10 -196 73 -338 218 -483 72 -72 102 -94 181 -133 127
-62 199 -80 334 -80 135 0 207 18 335 81 79 39 109 60 180 132 98 99 140 165
183 288 30 83 32 96 31 233 0 130 -3 153 -27 225 -39 117 -91 199 -187 296
-72 72 -102 94 -181 133 -51 25 -121 53 -154 61 -294 74 -616 -47 -787 -297
-21 -32 -42 -58 -46 -58 -4 0 -42 7 -85 15 -99 19 -277 19 -382 0 -44 -8 -81
-15 -82 -15 -1 0 -20 26 -42 58 -163 237 -456 360 -736 307z"/>
</g>
</svg>
