<?xml version="1.0" standalone="no"?>
<!DOCTYPE svg PUBLIC "-//W3C//DTD SVG 20010904//EN"
 "http://www.w3.org/TR/2001/REC-SVG-20010904/DTD/svg10.dtd">
<svg version="1.0" xmlns="http://www.w3.org/2000/svg"
 width="512.000000pt" height="512.000000pt" viewBox="0 0 512.000000 512.000000"
 preserveAspectRatio="xMidYMid meet">

<g transform="translate(0.000000,512.000000) scale(0.100000,-0.100000)"
fill="#000000" stroke="none">
<path d="M1583 4895 c-176 -50 -312 -178 -364 -344 -16 -52 -22 -103 -26 -238
l-6 -173 1154 0 c1285 0 1226 3 1373 -69 212 -103 348 -298 376 -538 6 -53 10
-474 10 -1072 l0 -983 131 -144 c72 -79 143 -153 156 -164 35 -27 78 -26 108
5 l25 24 0 446 0 445 83 0 c243 0 447 160 502 392 23 97 22 1942 -1 2031 -45
175 -168 307 -339 365 l-70 23 -1530 5 c-1332 4 -1537 2 -1582 -11z"/>
<path d="M450 3960 c-209 -25 -381 -177 -435 -385 -13 -51 -15 -187 -15 -1014
0 -1054 -2 -1021 63 -1145 40 -75 134 -169 207 -206 108 -54 151 -60 464 -60
l286 0 0 -427 c0 -388 2 -431 18 -463 21 -43 58 -58 99 -41 18 7 195 194 447
471 l417 459 752 4 c718 3 754 4 807 23 178 64 293 180 346 349 18 57 19 107
19 1040 0 1083 4 1006 -63 1140 -33 66 -143 173 -212 207 -124 61 -35 58
-1655 57 -814 -1 -1509 -5 -1545 -9z m1549 -855 c38 -19 55 -62 41 -100 -21
-56 3 -54 -633 -55 l-588 0 -24 25 c-41 40 -26 113 29 135 11 5 274 9 584 9
474 1 567 -1 591 -14z m1094 -506 c30 -8 42 -18 53 -44 16 -39 4 -89 -26 -105
-12 -6 -436 -10 -1164 -10 l-1145 0 -20 26 c-12 15 -21 39 -21 54 0 34 33 77
63 83 52 10 2223 7 2260 -4z m34 -531 c30 -34 34 -55 19 -93 -11 -26 -24 -36
-53 -45 -27 -8 -358 -10 -1156 -8 l-1119 3 -24 28 c-31 37 -31 81 1 112 l24
25 1144 0 1144 0 20 -22z"/>
</g>
</svg>
