<?xml version="1.0" standalone="no"?>
<!DOCTYPE svg PUBLIC "-//W3C//DTD SVG 20010904//EN"
 "http://www.w3.org/TR/2001/REC-SVG-20010904/DTD/svg10.dtd">
<svg version="1.0" xmlns="http://www.w3.org/2000/svg"
 width="900px" height="900px" viewBox="0 0 27.000000 27.000000"
 preserveAspectRatio="xMidYMid meet">

<g transform="translate(0.000000,27.000000) scale(0.100000,-0.100000)"
fill="#ffbc00" stroke="none">
<path d="M97 212 c-19 -21 -22 -57 -6 -67 5 -4 14 -18 19 -31 5 -13 16 -24 25
-24 9 0 20 11 25 24 5 13 14 27 19 31 17 10 13 50 -7 68 -24 22 -55 21 -75 -1z
m71 -4 c17 -17 15 -53 -3 -68 -13 -10 -15 -9 -15 8 0 12 5 24 10 27 6 4 7 11
4 17 -4 6 -10 6 -17 -1 -7 -7 -14 -7 -23 0 -8 6 -14 7 -18 0 -4 -5 -2 -12 4
-16 5 -3 10 -15 10 -27 0 -17 -2 -18 -15 -8 -32 26 -12 80 30 80 12 0 26 -5
33 -12z m-31 -70 c-3 -7 -5 -2 -5 12 0 14 2 19 5 13 2 -7 2 -19 0 -25z"/>
<path d="M62 88 c-32 -32 12 -78 73 -78 38 0 85 27 85 49 0 29 -28 47 -51 33
-23 -15 -56 -16 -64 -2 -8 14 -28 13 -43 -2z m146 -23 c-3 -3 -9 2 -12 12 -6
14 -5 15 5 6 7 -7 10 -15 7 -18z"/>
</g>
</svg>
