<?xml version="1.0" encoding="iso-8859-1"?>
<!-- Uploaded to: SVG Repo, www.svgrepo.com, Generator: SVG Repo Mixer Tools -->
<svg fill="#fff" height="800px" width="800px" version="1.1" id="Capa_1" xmlns="http://www.w3.org/2000/svg" xmlns:xlink="http://www.w3.org/1999/xlink" 
	 viewBox="0 0 404.462 404.462" xml:space="preserve">
<path d="M219.373,110.227c-0.102,0.029-0.158,0.092-0.258,0.123c-21.421,3.248-31.881,18.789-35.285,41.423
	c-7.163,47.644-3.411,108.134,2.768,155.727c2.062,15.869,23.515,16.374,25.1,0c2.832-29.243,0.676-58.955,0.176-88.322
	c-0.417-24.678-7.752-65.951,10.612-86.849c41.136,4.464,23.878,101.414,23.388,125.714
	c-1.046,51.806,11.807,108.138-56.872,118.039c-42.72-8.614-31.029-167.708-30.666-191.567
	c0.762-50.065-10.195-119.806,33.376-152.608c1.789,0.166,3.733,0.034,5.874-0.606c12.156-3.638,24.689-3.16,34.591,5.748
	c9.993,8.988,10.994,21.614,10.624,34.162c-0.458,15.629,21.1,16.932,25.943,3.511c16.408-45.446-36.65-87.754-78.753-70.967
	c-2.109,0.84-3.835,2.004-5.234,3.373c-71.146,3.133-55.237,147.526-55.425,191.678c-0.232,55.04-24.523,222.028,74.014,204.353
	c2.314-0.415,4.15-1.251,5.636-2.339c64.136,1.649,64.101-77.096,65.185-132.513C274.91,230.408,298.19,87.656,219.373,110.227z"/>
</svg>