<?xml version="1.0" encoding="UTF-8"?>
<!DOCTYPE svg PUBLIC "-//W3C//DTD SVG 1.1//EN" "http://www.w3.org/Graphics/SVG/1.1/DTD/svg11.dtd">
<svg xmlns="http://www.w3.org/2000/svg" version="1.1" width="655px" height="420px" style="shape-rendering:geometricPrecision; text-rendering:geometricPrecision; image-rendering:optimizeQuality; fill-rule:evenodd; clip-rule:evenodd" xmlns:xlink="http://www.w3.org/1999/xlink">
<g><path style="opacity:1" fill="transparent" d="M -0.5,-0.5 C 217.833,-0.5 436.167,-0.5 654.5,-0.5C 654.5,139.5 654.5,279.5 654.5,419.5C 436.167,419.5 217.833,419.5 -0.5,419.5C -0.5,279.5 -0.5,139.5 -0.5,-0.5 Z"/></g>
<g><path style="opacity:1" fill="#545454" d="M 27.5,19.5 C 223.5,19.3333 419.5,19.5 615.5,20C 629.867,22.7304 637.533,31.397 638.5,46C 637.825,61.0448 630.158,70.0448 615.5,73C 419.5,73.6667 223.5,73.6667 27.5,73C 10.6854,66.873 4.18538,55.0397 8,37.5C 11.906,28.6399 18.406,22.6399 27.5,19.5 Z"/></g>
<g><path style="opacity:1" fill="#fc904d" d="M 603.5,26.5 C 623.825,25.3173 632.325,34.6507 629,54.5C 623.482,64.6718 614.982,68.5052 603.5,66C 592.248,60.6574 588.081,51.8241 591,39.5C 593.353,33.3154 597.52,28.982 603.5,26.5 Z"/></g>
<g><path style="opacity:1" fill="#fa8f4d" d="M 42.5,35.5 C 44.1667,35.5 45.8333,35.5 47.5,35.5C 47.3367,37.8568 47.5034,40.1902 48,42.5C 51.2935,39.6888 54.2935,40.0221 57,43.5C 57.499,47.8206 57.6657,52.1539 57.5,56.5C 55.8333,56.5 54.1667,56.5 52.5,56.5C 52.5,52.8333 52.5,49.1667 52.5,45.5C 50.8561,45.2865 49.3561,45.6198 48,46.5C 47.5017,49.8168 47.335,53.1501 47.5,56.5C 45.8333,56.5 44.1667,56.5 42.5,56.5C 42.5,49.5 42.5,42.5 42.5,35.5 Z"/></g>
<g><path style="opacity:1" fill="#f88e4d" d="M 29.5,36.5 C 32.1873,36.3359 34.854,36.5026 37.5,37C 39.8361,38.2701 39.8361,39.7701 37.5,41.5C 32.3177,39.1369 29.651,40.8036 29.5,46.5C 29.651,52.1964 32.3177,53.8631 37.5,51.5C 38.7472,53.0064 38.7472,54.5064 37.5,56C 27.5991,57.7679 23.0991,53.6012 24,43.5C 24.9668,40.3794 26.8001,38.046 29.5,36.5 Z"/></g>
<g><path style="opacity:1" fill="#fa8f4d" d="M 108.5,36.5 C 121.201,36.7426 124.868,42.5759 119.5,54C 108.01,58.6753 102.51,54.842 103,42.5C 104.36,39.9774 106.193,37.9774 108.5,36.5 Z"/></g>
<g><path style="opacity:1" fill="#f78e4d" d="M 88.5,44.5 C 87.1667,44.5 85.8333,44.5 84.5,44.5C 84.1936,47.3854 84.5269,50.0521 85.5,52.5C 86.5,52.5 87.5,52.5 88.5,52.5C 88.5,53.8333 88.5,55.1667 88.5,56.5C 85.3148,56.9804 82.4815,56.3137 80,54.5C 79.9,50.7984 79.0667,47.2984 77.5,44C 78.8182,42.0104 80.1515,40.0104 81.5,38C 82.448,37.5172 83.448,37.3505 84.5,37.5C 84.5,38.5 84.5,39.5 84.5,40.5C 85.8333,40.5 87.1667,40.5 88.5,40.5C 88.5,41.8333 88.5,43.1667 88.5,44.5 Z"/></g>
<g><path style="opacity:1" fill="#f28c4d" d="M 64.5,40.5 C 67.9297,40.1065 71.0964,40.7732 74,42.5C 75.3789,47.036 75.8789,51.7027 75.5,56.5C 73.2776,56.822 71.4443,56.1554 70,54.5C 67,57.1667 64,57.1667 61,54.5C 60.3333,52.8333 60.3333,51.1667 61,49.5C 63.4331,47.3742 66.2665,46.0409 69.5,45.5C 67.6471,44.2404 65.8138,44.2404 64,45.5C 61.99,43.6037 62.1567,41.937 64.5,40.5 Z"/></g>
<g><path style="opacity:1" fill="#8f6851" d="M 88.5,44.5 C 87.791,45.404 86.791,45.7373 85.5,45.5C 85.5,47.8333 85.5,50.1667 85.5,52.5C 84.5269,50.0521 84.1936,47.3854 84.5,44.5C 85.8333,44.5 87.1667,44.5 88.5,44.5 Z"/></g>
<g><path style="opacity:1" fill="#625853" d="M 66.5,49.5 C 67.5,49.5 68.5,49.5 69.5,49.5C 69.5,50.5 69.5,51.5 69.5,52.5C 68.5,52.5 67.5,52.5 66.5,52.5C 66.5,51.5 66.5,50.5 66.5,49.5 Z"/></g>
<g><path style="opacity:1" fill="#545454" d="M 29.5,83.5 C 94.1675,83.3333 158.834,83.5 223.5,84C 234.974,87.4738 242.474,94.9738 246,106.5C 246.667,196.833 246.667,287.167 246,377.5C 243.834,390.668 236.334,399.168 223.5,403C 158.833,403.667 94.1667,403.667 29.5,403C 16.6662,399.168 9.16617,390.668 7,377.5C 6.33333,287.167 6.33333,196.833 7,106.5C 10.7103,94.9579 18.2103,87.2912 29.5,83.5 Z"/></g>
<g><path style="opacity:1" fill="#545454" d="M 277.5,83.5 C 389.5,83.3333 501.5,83.5 613.5,84C 626.563,86.7297 634.73,94.563 638,107.5C 638.667,198.167 638.667,288.833 638,379.5C 634.609,392.891 626.109,400.725 612.5,403C 500.833,403.667 389.167,403.667 277.5,403C 264.666,399.168 257.166,390.668 255,377.5C 254.333,287.167 254.333,196.833 255,106.5C 258.71,94.9579 266.21,87.2912 277.5,83.5 Z"/></g>
<g><path style="opacity:1" fill="#fe904d" d="M 29.5,103.5 C 65.8737,103.032 102.207,103.532 138.5,105C 148.063,109.961 151.897,117.794 150,128.5C 147.602,136.9 142.102,141.733 133.5,143C 98.8333,143.667 64.1667,143.667 29.5,143C 16.813,137.972 12.313,128.805 16,115.5C 18.85,109.514 23.35,105.514 29.5,103.5 Z"/></g>
<g><path style="opacity:1" fill="#fb8f4d" d="M 170.5,107.5 C 187.569,108.059 193.402,116.392 188,132.5C 179,141.833 170,141.833 161,132.5C 156.02,120.928 159.187,112.595 170.5,107.5 Z"/></g>
<g><path style="opacity:1" fill="#fb8f4d" d="M 210.5,107.5 C 227.569,108.059 233.402,116.392 228,132.5C 219,141.833 210,141.833 201,132.5C 196.02,120.928 199.187,112.595 210.5,107.5 Z"/></g>
<g><path style="opacity:1" fill="#fe904d" d="M 299.5,115.5 C 328.169,115.333 356.835,115.5 385.5,116C 403.948,123.398 410.115,136.564 404,155.5C 399.857,163.644 393.357,168.811 384.5,171C 355.105,171.976 325.772,171.642 296.5,170C 282.367,163.237 276.534,152.07 279,136.5C 282.685,126.316 289.519,119.316 299.5,115.5 Z"/></g>
<g><path style="opacity:1" fill="#fe904d" d="M 505.5,172.5 C 535.502,172.333 565.502,172.5 595.5,173C 614.674,182.859 619.174,197.359 609,216.5C 605.464,221.02 600.964,224.186 595.5,226C 566.54,227.626 537.54,227.959 508.5,227C 492.4,221.645 485.233,210.478 487,193.5C 489.835,183.502 496.001,176.502 505.5,172.5 Z"/></g>
<g><path style="opacity:1" fill="#fe904d" d="M 38.5,179.5 C 97.1676,179.333 155.834,179.5 214.5,180C 226.568,183.067 234.401,190.567 238,202.5C 241.502,222.344 234.002,235.844 215.5,243C 156.167,243.667 96.8333,243.667 37.5,243C 21.9435,237.568 14.2769,226.568 14.5,210C 15.3085,194.039 23.3085,183.872 38.5,179.5 Z"/></g>
<g><path style="opacity:1" fill="#fe904d" d="M 37.5,253.5 C 96.8343,253.333 156.168,253.5 215.5,254C 234.975,261.781 242.141,275.948 237,296.5C 233.43,307.069 226.263,313.903 215.5,317C 156.167,317.667 96.8333,317.667 37.5,317C 21.9435,311.568 14.2769,300.568 14.5,284C 15.2957,268.548 22.9624,258.381 37.5,253.5 Z"/></g>
<g><path style="opacity:1" fill="#fe904d" d="M 37.5,327.5 C 96.8343,327.333 156.168,327.5 215.5,328C 234.975,335.781 242.141,349.948 237,370.5C 233.43,381.069 226.263,387.903 215.5,391C 156.167,391.667 96.8333,391.667 37.5,391C 21.9435,385.568 14.2769,374.568 14.5,358C 15.2957,342.548 22.9624,332.381 37.5,327.5 Z"/></g>
<g><path style="opacity:1" fill="#fe904d" d="M 282.5,339.5 C 391.834,339.333 501.167,339.5 610.5,340C 629.772,348.051 634.939,361.551 626,380.5C 622.097,385.868 616.93,389.368 610.5,391C 501.167,391.667 391.833,391.667 282.5,391C 267.478,385.792 260.978,375.292 263,359.5C 266.351,349.65 272.851,342.983 282.5,339.5 Z"/></g>
<g><path style="opacity:1" fill="#575453" d="M 594.5,349.5 C 610.167,349.658 616.334,357.324 613,372.5C 607.134,381.564 599.3,383.731 589.5,379C 582.189,372.69 580.689,365.19 585,356.5C 587.529,353.115 590.696,350.782 594.5,349.5 Z"/></g>
</svg>
