<?xml version="1.0" encoding="UTF-8"?>
<!DOCTYPE svg PUBLIC "-//W3C//DTD SVG 1.1//EN" "http://www.w3.org/Graphics/SVG/1.1/DTD/svg11.dtd">
<svg xmlns="http://www.w3.org/2000/svg" version="1.1" width="800px" height="600px" style="shape-rendering:geometricPrecision; text-rendering:geometricPrecision; image-rendering:optimizeQuality; fill-rule:evenodd; clip-rule:evenodd" xmlns:xlink="http://www.w3.org/1999/xlink">
<g><path style="opacity:1" fill="transparent" d="M -0.5,-0.5 C 266.167,-0.5 532.833,-0.5 799.5,-0.5C 799.5,199.5 799.5,399.5 799.5,599.5C 532.833,599.5 266.167,599.5 -0.5,599.5C -0.5,399.5 -0.5,199.5 -0.5,-0.5 Z"/></g>
<g><path style="opacity:1" fill="#fefefe" d="M 739.5,285.5 C 512.833,285.5 286.167,285.5 59.5,285.5C 59.3333,230.499 59.5,175.499 60,120.5C 62.6699,110.497 68.8366,103.664 78.5,100C 292.167,99.3333 505.833,99.3333 719.5,100C 729.738,103.239 736.238,110.072 739,120.5C 739.5,175.499 739.667,230.499 739.5,285.5 Z"/></g>
<g><path style="opacity:1" fill="#cb9e22" d="M 220.5,142.5 C 220.156,145.562 219.489,148.562 218.5,151.5C 217.817,151.137 217.15,150.804 216.5,150.5C 192.394,142.566 167.727,140.066 142.5,143C 131.801,144.962 121.467,147.796 111.5,151.5C 109.972,150.198 108.972,148.531 108.5,146.5C 108.5,143.5 108.5,140.5 108.5,137.5C 143.671,126.089 179.004,125.589 214.5,136C 218.74,136.256 220.74,138.422 220.5,142.5 Z"/></g>
<g><path style="opacity:1" fill="#8a8141" d="M 160.5,132.5 C 164.833,131.167 169.167,131.167 173.5,132.5C 172.5,132.5 171.5,132.5 170.5,132.5C 170.768,134.099 170.434,135.432 169.5,136.5C 169.737,135.209 169.404,134.209 168.5,133.5C 167.5,132.167 166.5,132.167 165.5,133.5C 165.167,133.5 164.833,133.5 164.5,133.5C 163.558,133.996 162.891,135.33 162.5,137.5C 162.167,137.5 161.833,137.5 161.5,137.5C 163.118,135.344 162.784,133.677 160.5,132.5 Z"/></g>
<g><path style="opacity:1" fill="#174e8a" d="M 164.5,133.5 C 164.799,135.604 164.466,137.604 163.5,139.5C 162.702,139.043 162.369,138.376 162.5,137.5C 162.891,135.33 163.558,133.996 164.5,133.5 Z"/></g>
<g><path style="opacity:1" fill="#104d8b" d="M 165.5,133.5 C 166.5,132.167 167.5,132.167 168.5,133.5C 167.691,135.292 167.191,137.292 167,139.5C 166.809,137.292 166.309,135.292 165.5,133.5 Z"/></g>
<g><path style="opacity:1" fill="#2a5380" d="M 173.5,132.5 C 171.069,133.741 171.069,134.908 173.5,136C 171.519,136.605 171.185,137.605 172.5,139C 171.552,139.483 170.552,139.649 169.5,139.5C 169.5,138.5 169.5,137.5 169.5,136.5C 170.434,135.432 170.768,134.099 170.5,132.5C 171.5,132.5 172.5,132.5 173.5,132.5 Z"/></g>
<g><path style="opacity:1" fill="#405977" d="M 178.5,132.5 C 180.294,134.103 181.294,136.27 181.5,139C 181.167,139.5 180.833,140 180.5,140.5C 179.28,139.289 178.113,139.289 177,140.5C 176.572,137.678 177.072,135.012 178.5,132.5 Z"/></g>
<g><path style="opacity:1" fill="#285481" d="M 141.5,133.5 C 142.822,133.33 143.989,133.663 145,134.5C 145.667,136.5 145.667,138.5 145,140.5C 144,141.833 143,141.833 142,140.5C 141.503,138.19 141.337,135.857 141.5,133.5 Z"/></g>
<g><path style="opacity:1" fill="#265184" d="M 149.5,132.5 C 152.488,132.155 153.821,133.488 153.5,136.5C 153.821,139.512 152.488,140.845 149.5,140.5C 149.5,137.833 149.5,135.167 149.5,132.5 Z"/></g>
<g><path style="opacity:1" fill="#90823a" d="M 150.5,134.5 C 151.586,134.62 152.253,135.287 152.5,136.5C 152.167,137.167 151.833,137.833 151.5,138.5C 150.571,137.311 150.238,135.978 150.5,134.5 Z"/></g>
<g><path style="opacity:1" fill="#697254" d="M 129.5,137.5 C 128.794,136.443 128.461,136.776 128.5,138.5C 127.379,136.911 127.546,135.244 129,133.5C 130.298,134.946 130.465,136.279 129.5,137.5 Z"/></g>
<g><path style="opacity:1" fill="#435e71" d="M 133.5,134.5 C 136.524,134.947 136.857,135.78 134.5,137C 135.448,137.483 136.448,137.649 137.5,137.5C 138.254,141.419 136.92,142.753 133.5,141.5C 132.178,139.135 132.178,136.802 133.5,134.5 Z"/></g>
<g><path style="opacity:1" fill="#144e89" d="M 160.5,132.5 C 162.784,133.677 163.118,135.344 161.5,137.5C 160.339,137.589 160.006,135.922 160.5,132.5 Z"/></g>
<g><path style="opacity:1" fill="#3d5b76" d="M 186.5,133.5 C 187.586,133.62 188.253,134.287 188.5,135.5C 188,137.5 187.5,139.5 187,141.5C 186.503,138.854 186.336,136.187 186.5,133.5 Z"/></g>
<g><path style="opacity:1" fill="#3b587a" d="M 155.5,132.5 C 156.496,132.414 157.329,132.748 158,133.5C 158.251,135.433 158.751,137.266 159.5,139C 158.065,138.689 156.732,138.855 155.5,139.5C 154.637,137.229 154.637,134.895 155.5,132.5 Z"/></g>
<g><path style="opacity:1" fill="#204f87" d="M 184.5,136.5 C 183.833,137.833 183.167,139.167 182.5,140.5C 182.148,137.927 182.648,135.594 184,133.5C 184.483,134.448 184.649,135.448 184.5,136.5 Z"/></g>
<g><path style="opacity:1" fill="#38567d" d="M 195.5,135.5 C 196.75,135.577 197.583,136.244 198,137.5C 198.333,136.833 198.667,136.167 199,135.5C 199.584,138.257 199.25,140.923 198,143.5C 197.667,142.167 197.333,140.833 197,139.5C 196.581,140.672 195.915,141.672 195,142.5C 194.666,140.153 194.833,137.819 195.5,135.5 Z"/></g>
<g><path style="opacity:1" fill="#9a8737" d="M 142.5,134.5 C 144.3,135.895 144.634,137.561 143.5,139.5C 142.548,137.955 142.215,136.288 142.5,134.5 Z"/></g>
<g><path style="opacity:1" fill="#2f567b" d="M 201.5,136.5 C 202.371,138.777 202.038,141.11 200.5,143.5C 200.167,143.333 199.833,143.167 199.5,143C 200.23,140.846 200.897,138.679 201.5,136.5 Z"/></g>
<g><path style="opacity:1" fill="#51626d" d="M 119.5,137.5 C 122.89,138.944 124.223,141.61 123.5,145.5C 119.013,144.527 117.68,141.86 119.5,137.5 Z"/></g>
<g><path style="opacity:1" fill="#5e6b5d" d="M 184.5,136.5 C 184.421,137.93 184.754,139.264 185.5,140.5C 184.386,141.776 183.386,141.776 182.5,140.5C 183.167,139.167 183.833,137.833 184.5,136.5 Z"/></g>
<g><path style="opacity:1" fill="#305381" d="M 203.5,137.5 C 204.873,137.343 206.207,137.51 207.5,138C 205.519,138.605 205.185,139.605 206.5,141C 205.692,141.308 205.025,141.808 204.5,142.5C 205.59,143.609 205.59,144.609 204.5,145.5C 203.5,145.167 202.833,144.5 202.5,143.5C 203.348,141.591 203.682,139.591 203.5,137.5 Z"/></g>
<g><path style="opacity:1" fill="#2e577b" d="M 138.5,134.5 C 139.283,136.343 139.95,138.343 140.5,140.5C 140.167,140.833 139.833,141.167 139.5,141.5C 138.526,139.257 138.192,136.924 138.5,134.5 Z"/></g>
<g><path style="opacity:1" fill="#3d587a" d="M 212.5,142.5 C 210.955,143.23 210.122,144.563 210,146.5C 209.717,143.258 208.883,142.924 207.5,145.5C 207.167,145.167 206.833,144.833 206.5,144.5C 207.023,142.067 208.19,140.067 210,138.5C 212.02,139.032 212.853,140.365 212.5,142.5 Z"/></g>
<g><path style="opacity:1" fill="#415a77" d="M 190.5,134.5 C 191.675,134.281 192.675,134.614 193.5,135.5C 190.809,135.563 189.976,137.23 191,140.5C 191.249,139.376 191.749,138.376 192.5,137.5C 193.904,139.547 193.571,141.214 191.5,142.5C 189.225,140.168 188.892,137.502 190.5,134.5 Z"/></g>
<g><path style="opacity:1" fill="#2d5481" d="M 212.5,142.5 C 213.212,141.261 214.212,140.761 215.5,141C 214.475,143.071 213.642,145.238 213,147.5C 212.506,145.866 212.34,144.199 212.5,142.5 Z"/></g>
<g><path style="opacity:1" fill="#d6a724" d="M 107.5,147.5 C 107.658,149.821 108.658,151.654 110.5,153C 109.944,153.383 109.611,153.883 109.5,154.5C 102.653,156.44 95.9862,158.607 89.5,161C 91.4466,156.72 94.4466,153.387 98.5,151C 95.8333,150.333 93.1667,149.667 90.5,149C 95.4822,145.062 101.149,143.228 107.5,143.5C 107.5,144.833 107.5,146.167 107.5,147.5 Z"/></g>
<g><path style="opacity:1" fill="#405b75" d="M 114.5,139.5 C 115.675,139.281 116.675,139.614 117.5,140.5C 115.599,141.935 115.266,143.602 116.5,145.5C 119.187,144.939 119.187,145.606 116.5,147.5C 113.632,145.362 112.965,142.695 114.5,139.5 Z"/></g>
<g><path style="opacity:1" fill="#445c73" d="M 128.5,138.5 C 128.461,136.776 128.794,136.443 129.5,137.5C 129.918,138.222 130.584,138.722 131.5,139C 130.167,140.333 130.167,141.667 131.5,143C 129.26,143.977 126.927,144.477 124.5,144.5C 124.708,142.08 124.374,139.747 123.5,137.5C 123.833,137.167 124.167,136.833 124.5,136.5C 125.205,138.672 126.205,140.672 127.5,142.5C 128.429,141.311 128.762,139.978 128.5,138.5 Z"/></g>
<g><path style="opacity:1" fill="#d6a622" d="M 223.5,143.5 C 228.923,144.213 233.923,146.046 238.5,149C 235.711,149.241 233.044,149.908 230.5,151C 233.731,153.727 236.397,156.894 238.5,160.5C 238.167,160.833 237.833,161.167 237.5,161.5C 230.961,158.216 224.295,155.549 217.5,153.5C 218.209,152.596 219.209,152.263 220.5,152.5C 220.338,150.473 220.505,148.473 221,146.5C 221.236,144.881 222.069,143.881 223.5,143.5 Z"/></g>
<g><path style="opacity:1" fill="#ecd493" d="M 220.5,142.5 C 221.791,142.263 222.791,142.596 223.5,143.5C 222.069,143.881 221.236,144.881 221,146.5C 220.505,148.473 220.338,150.473 220.5,152.5C 219.209,152.263 218.209,152.596 217.5,153.5C 214.284,152.831 213.951,151.831 216.5,150.5C 217.15,150.804 217.817,151.137 218.5,151.5C 219.489,148.562 220.156,145.562 220.5,142.5 Z"/></g>
<g><path style="opacity:1" fill="#5282b3" d="M 139.5,145.5 C 140.833,145.5 142.167,145.5 143.5,145.5C 143.682,150.794 144.182,150.794 145,145.5C 145.808,147.579 145.641,149.579 144.5,151.5C 142.931,150.286 142.098,148.619 142,146.5C 140.577,152.903 139.743,152.569 139.5,145.5 Z"/></g>
<g><path style="opacity:1" fill="#4f7fb2" d="M 146.5,145.5 C 147.397,146.598 148.23,146.598 149,145.5C 149.667,147.5 149.667,149.5 149,151.5C 148.333,148.833 147.667,148.833 147,151.5C 146.505,149.527 146.338,147.527 146.5,145.5 Z"/></g>
<g><path style="opacity:1" fill="#3f6da7" d="M 188.5,145.5 C 189.622,147.288 189.789,149.288 189,151.5C 188.091,149.342 187.925,147.342 188.5,145.5 Z"/></g>
<g><path style="opacity:1" fill="#5179a6" d="M 181.5,145.5 C 183.898,146.882 184.065,148.549 182,150.5C 180.481,148.861 180.314,147.194 181.5,145.5 Z"/></g>
<g><path style="opacity:1" fill="#4176ac" d="M 167.5,145.5 C 168.239,145.369 168.906,145.536 169.5,146C 169.011,147.809 168.677,149.643 168.5,151.5C 167.534,149.604 167.201,147.604 167.5,145.5 Z"/></g>
<g><path style="opacity:1" fill="#5080b1" d="M 170.5,145.5 C 171.473,146.791 172.473,146.791 173.5,145.5C 174.641,147.421 174.808,149.421 174,151.5C 173,150.167 172,150.167 171,151.5C 170.505,149.527 170.338,147.527 170.5,145.5 Z"/></g>
<g><path style="opacity:1" fill="#6a89ae" d="M 150.5,145.5 C 152.411,145.574 153.578,146.574 154,148.5C 155,144.5 156,144.5 157,148.5C 157.483,147.552 157.649,146.552 157.5,145.5C 159.584,146.248 161.584,146.248 163.5,145.5C 164.833,147.5 164.833,149.5 163.5,151.5C 162.522,151.023 161.689,150.357 161,149.5C 159.991,150.658 158.658,151.325 157,151.5C 154.994,150.927 153.16,150.927 151.5,151.5C 150.534,149.604 150.201,147.604 150.5,145.5 Z"/></g>
<g><path style="opacity:1" fill="#d2b55d" d="M 108.5,146.5 C 108.972,148.531 109.972,150.198 111.5,151.5C 129.132,152.459 146.799,152.793 164.5,152.5C 164.5,152.833 164.5,153.167 164.5,153.5C 164.5,167.5 164.5,181.5 164.5,195.5C 164.167,195.5 163.833,195.5 163.5,195.5C 163.5,181.5 163.5,167.5 163.5,153.5C 147.325,153.17 131.325,153.504 115.5,154.5C 114.542,154.047 113.708,153.381 113,152.5C 112.184,153.823 111.017,154.489 109.5,154.5C 109.611,153.883 109.944,153.383 110.5,153C 108.658,151.654 107.658,149.821 107.5,147.5C 108.167,147.5 108.5,147.167 108.5,146.5 Z"/></g>
<g><path style="opacity:1" fill="#4178ad" d="M 164.5,153.5 C 164.5,153.167 164.5,152.833 164.5,152.5C 180.847,152.167 197.18,152.501 213.5,153.5C 213.376,154.107 213.043,154.44 212.5,154.5C 196.675,153.504 180.675,153.17 164.5,153.5 Z"/></g>
<g><path style="opacity:1" fill="#d3a10d" d="M 115.5,154.5 C 131.325,153.504 147.325,153.17 163.5,153.5C 163.5,167.5 163.5,181.5 163.5,195.5C 149.833,195.5 136.167,195.5 122.5,195.5C 122.667,183.829 122.5,172.162 122,160.5C 119.963,158.294 117.797,156.294 115.5,154.5 Z"/></g>
<g><path style="opacity:1" fill="#0b4e93" d="M 164.5,153.5 C 180.675,153.17 196.675,153.504 212.5,154.5C 210.873,156.63 209.04,158.63 207,160.5C 206.5,172.162 206.333,183.829 206.5,195.5C 192.5,195.5 178.5,195.5 164.5,195.5C 164.5,181.5 164.5,167.5 164.5,153.5 Z"/></g>
<g><path style="opacity:1" fill="#d1ddeb" d="M 192.5,157.5 C 193.606,160.077 195.606,161.744 198.5,162.5C 197.5,163.333 196.5,164.167 195.5,165C 197.03,169.038 196.196,169.538 193,166.5C 189.804,169.538 188.97,169.038 190.5,165C 189.167,164 187.833,163 186.5,162C 189.843,162.059 191.843,160.559 192.5,157.5 Z"/></g>
<g><path style="opacity:1" fill="#e2eaf2" d="M 173.5,162.5 C 175.189,163.931 177.189,164.764 179.5,165C 177.926,166.826 177.093,168.993 177,171.5C 175.333,170.167 173.667,170.167 172,171.5C 171.907,168.993 171.074,166.826 169.5,165C 171.437,164.878 172.77,164.045 173.5,162.5 Z"/></g>
<g><path style="opacity:1" fill="#f5f7fa" d="M 193.5,175.5 C 194.404,176.209 194.737,177.209 194.5,178.5C 195.873,178.343 197.207,178.51 198.5,179C 196.996,180.491 196.163,182.324 196,184.5C 194.667,183.167 193.333,183.167 192,184.5C 191.837,182.324 191.004,180.491 189.5,179C 191.55,178.584 192.884,177.417 193.5,175.5 Z"/></g>
<g><path style="opacity:1" fill="#dce6ef" d="M 181.5,177.5 C 182.404,178.209 182.737,179.209 182.5,180.5C 185.742,180.467 186.075,181.8 183.5,184.5C 182.5,183.167 181.5,183.167 180.5,184.5C 179.772,182.807 178.772,181.307 177.5,180C 179.32,179.8 180.653,178.966 181.5,177.5 Z"/></g>
<g><path style="opacity:1" fill="#e0e8f1" d="M 169.5,184.5 C 170.882,185.801 172.548,186.634 174.5,187C 172.606,188.079 172.273,189.413 173.5,191C 171.802,190.503 170.135,190.67 168.5,191.5C 167.756,190.009 167.09,188.509 166.5,187C 168.119,186.764 169.119,185.931 169.5,184.5 Z"/></g>
<g><path style="opacity:1" fill="#054c91" d="M 122.5,195.5 C 136.167,195.5 149.833,195.5 163.5,195.5C 163.83,214.674 163.497,233.674 162.5,252.5C 149.107,248.702 135.774,244.702 122.5,240.5C 122.5,225.5 122.5,210.5 122.5,195.5 Z"/></g>
<g><path style="opacity:1" fill="#59819b" d="M 163.5,195.5 C 163.833,195.5 164.167,195.5 164.5,195.5C 164.5,214.833 164.5,234.167 164.5,253.5C 163.508,253.672 162.842,253.338 162.5,252.5C 163.497,233.674 163.83,214.674 163.5,195.5 Z"/></g>
<g><path style="opacity:1" fill="#d4a011" d="M 164.5,195.5 C 178.5,195.5 192.5,195.5 206.5,195.5C 206.5,210.5 206.5,225.5 206.5,240.5C 192.364,244.435 178.364,248.768 164.5,253.5C 164.5,234.167 164.5,214.833 164.5,195.5 Z"/></g>
<g><path style="opacity:1" fill="#d0dce9" d="M 158.5,226.5 C 154.116,226.826 149.783,226.492 145.5,225.5C 148.219,225.346 151.219,225.346 154.5,225.5C 155.5,225.5 156.5,225.5 157.5,225.5C 157.982,222.169 156.982,219.503 154.5,217.5C 152.598,213.222 149.431,212.222 145,214.5C 142.745,214.39 141.078,213.39 140,211.5C 139.505,213.473 139.338,215.473 139.5,217.5C 139.5,218.167 139.5,218.833 139.5,219.5C 139.5,219.833 139.5,220.167 139.5,220.5C 138.778,220.918 138.278,221.584 138,222.5C 137.809,220.292 137.309,218.292 136.5,216.5C 133.393,215.312 130.227,214.312 127,213.5C 127.208,210.477 128.874,208.477 132,207.5C 132.5,208 133,208.5 133.5,209C 140.196,209.441 146.863,209.441 153.5,209C 155.081,209.707 156.581,210.54 158,211.5C 159.289,216.52 159.455,221.52 158.5,226.5 Z"/></g>
<g><path style="opacity:1" fill="#2a5f9e" d="M 154.5,217.5 C 153.542,217.953 152.708,218.619 152,219.5C 151.333,218.167 150.667,216.833 150,215.5C 149.801,217.402 148.967,218.902 147.5,220C 148.167,220.333 148.833,220.667 149.5,221C 148.809,222.067 148.309,223.234 148,224.5C 146.308,222.778 145.141,220.945 144.5,219C 144.905,218.055 145.572,217.388 146.5,217C 144.071,216.297 141.738,216.463 139.5,217.5C 139.338,215.473 139.505,213.473 140,211.5C 141.078,213.39 142.745,214.39 145,214.5C 149.431,212.222 152.598,213.222 154.5,217.5 Z"/></g>
<g><path style="opacity:1" fill="#1c5798" d="M 154.5,217.5 C 156.982,219.503 157.982,222.169 157.5,225.5C 156.5,225.5 155.5,225.5 154.5,225.5C 155.371,222.728 155.371,220.062 154.5,217.5 Z"/></g>
<g><path style="opacity:1" fill="#98b4d1" d="M 154.5,217.5 C 155.371,220.062 155.371,222.728 154.5,225.5C 151.219,225.346 148.219,225.346 145.5,225.5C 149.783,226.492 154.116,226.826 158.5,226.5C 158.5,227.5 158.5,228.5 158.5,229.5C 150.16,229.666 141.827,229.5 133.5,229C 135.627,225.116 136.627,220.949 136.5,216.5C 137.309,218.292 137.809,220.292 138,222.5C 138.278,221.584 138.778,220.918 139.5,220.5C 139.67,221.822 139.337,222.989 138.5,224C 139.5,224.667 140.5,224.667 141.5,224C 142.842,221.985 143.342,219.818 143,217.5C 141.887,218.305 140.721,218.972 139.5,219.5C 139.5,218.833 139.5,218.167 139.5,217.5C 141.738,216.463 144.071,216.297 146.5,217C 145.572,217.388 144.905,218.055 144.5,219C 145.141,220.945 146.308,222.778 148,224.5C 148.309,223.234 148.809,222.067 149.5,221C 148.833,220.667 148.167,220.333 147.5,220C 148.967,218.902 149.801,217.402 150,215.5C 150.667,216.833 151.333,218.167 152,219.5C 152.708,218.619 153.542,217.953 154.5,217.5 Z"/></g>
<g><path style="opacity:1" fill="#054d92" d="M 139.5,220.5 C 139.5,220.167 139.5,219.833 139.5,219.5C 140.721,218.972 141.887,218.305 143,217.5C 143.342,219.818 142.842,221.985 141.5,224C 140.5,224.667 139.5,224.667 138.5,224C 139.337,222.989 139.67,221.822 139.5,220.5 Z"/></g>
<g><path style="opacity:1" fill="#5271ff" d="M 59.5,286.5 C 285.833,286.5 512.167,286.5 738.5,286.5C 738.5,295.167 738.5,303.833 738.5,312.5C 512.167,312.5 285.833,312.5 59.5,312.5C 59.5,303.833 59.5,295.167 59.5,286.5 Z"/></g>
<g><path style="opacity:1" fill="#8ea2fe" d="M 59.5,286.5 C 59.5,286.167 59.5,285.833 59.5,285.5C 286.167,285.5 512.833,285.5 739.5,285.5C 739.5,294.833 739.5,304.167 739.5,313.5C 512.833,313.5 286.167,313.5 59.5,313.5C 59.5,313.167 59.5,312.833 59.5,312.5C 285.833,312.5 512.167,312.5 738.5,312.5C 738.5,303.833 738.5,295.167 738.5,286.5C 512.167,286.5 285.833,286.5 59.5,286.5 Z"/></g>
<g><path style="opacity:1" fill="#5ce0e5" d="M 59.5,313.5 C 286.167,313.5 512.833,313.5 739.5,313.5C 739.667,369.834 739.5,426.168 739,482.5C 735.631,494.535 727.798,501.702 715.5,504C 504.5,504.667 293.5,504.667 82.5,504C 69.8538,501.022 62.3538,493.188 60,480.5C 59.5,424.834 59.3333,369.168 59.5,313.5 Z"/></g>
</svg>
